<svg width="25" height="25" viewBox="0 0 25 25" fill="currentColor" xmlns="http://www.w3.org/2000/svg">
<path d="M8.12499 2.08334H16.875C20.2083 2.08334 22.9167 4.79167 22.9167 8.125V16.875C22.9167 18.4774 22.2801 20.0141 21.1471 21.1471C20.0141 22.2801 18.4773 22.9167 16.875 22.9167H8.12499C4.79166 22.9167 2.08333 20.2083 2.08333 16.875V8.125C2.08333 6.52265 2.71986 4.98593 3.85289 3.8529C4.98592 2.71987 6.52265 2.08334 8.12499 2.08334ZM7.91666 4.16667C6.9221 4.16667 5.96827 4.56176 5.26501 5.26502C4.56175 5.96828 4.16666 6.92211 4.16666 7.91667V17.0833C4.16666 19.1563 5.84374 20.8333 7.91666 20.8333H17.0833C18.0779 20.8333 19.0317 20.4382 19.735 19.735C20.4382 19.0317 20.8333 18.0779 20.8333 17.0833V7.91667C20.8333 5.84375 19.1562 4.16667 17.0833 4.16667H7.91666ZM17.9687 5.72917C18.3141 5.72917 18.6453 5.86635 18.8895 6.11054C19.1336 6.35473 19.2708 6.68592 19.2708 7.03125C19.2708 7.37659 19.1336 7.70778 18.8895 7.95196C18.6453 8.19615 18.3141 8.33334 17.9687 8.33334C17.6234 8.33334 17.2922 8.19615 17.048 7.95196C16.8038 7.70778 16.6667 7.37659 16.6667 7.03125C16.6667 6.68592 16.8038 6.35473 17.048 6.11054C17.2922 5.86635 17.6234 5.72917 17.9687 5.72917ZM12.5 7.29167C13.8813 7.29167 15.2061 7.8404 16.1828 8.81715C17.1596 9.79391 17.7083 11.1187 17.7083 12.5C17.7083 13.8813 17.1596 15.2061 16.1828 16.1828C15.2061 17.1596 13.8813 17.7083 12.5 17.7083C11.1187 17.7083 9.7939 17.1596 8.81715 16.1828C7.84039 15.2061 7.29166 13.8813 7.29166 12.5C7.29166 11.1187 7.84039 9.79391 8.81715 8.81715C9.7939 7.8404 11.1187 7.29167 12.5 7.29167ZM12.5 9.375C11.6712 9.375 10.8763 9.70424 10.2903 10.2903C9.70423 10.8763 9.37499 11.6712 9.37499 12.5C9.37499 13.3288 9.70423 14.1237 10.2903 14.7097C10.8763 15.2958 11.6712 15.625 12.5 15.625C13.3288 15.625 14.1237 15.2958 14.7097 14.7097C15.2958 14.1237 15.625 13.3288 15.625 12.5C15.625 11.6712 15.2958 10.8763 14.7097 10.2903C14.1237 9.70424 13.3288 9.375 12.5 9.375Z"/>
</svg>
