<svg width="25" height="25" viewBox="0 0 25 25" fill="currentColor" xmlns="http://www.w3.org/2000/svg">
<path d="M9.41666 22.4375C10.4167 22.7396 11.4271 22.9167 12.5 22.9167C15.2627 22.9167 17.9122 21.8192 19.8657 19.8657C21.8192 17.9122 22.9167 15.2627 22.9167 12.5C22.9167 11.1321 22.6472 9.77752 22.1237 8.51372C21.6003 7.24991 20.833 6.10158 19.8657 5.13431C18.8984 4.16703 17.7501 3.39974 16.4863 2.87626C15.2225 2.35277 13.8679 2.08334 12.5 2.08334C11.1321 2.08334 9.77752 2.35277 8.51371 2.87626C7.2499 3.39974 6.10158 4.16703 5.1343 5.13431C3.1808 7.08781 2.08333 9.73733 2.08333 12.5C2.08333 16.9271 4.86458 20.7292 8.79166 22.2292C8.69791 21.4167 8.60416 20.0729 8.79166 19.1458L9.98958 14C9.98958 14 9.68749 13.3958 9.68749 12.4375C9.68749 11 10.5833 9.92709 11.6042 9.92709C12.5 9.92709 12.9167 10.5833 12.9167 11.4271C12.9167 12.3229 12.3229 13.6042 12.0208 14.8333C11.8437 15.8542 12.5625 16.75 13.6042 16.75C15.4583 16.75 16.8958 14.7708 16.8958 11.9792C16.8958 9.47917 15.1042 7.77084 12.5312 7.77084C9.59374 7.77084 7.86458 9.95834 7.86458 12.2604C7.86458 13.1563 8.15624 14.0625 8.63541 14.6563C8.72916 14.7188 8.72916 14.8021 8.69791 14.9583L8.39583 16.0938C8.39583 16.2708 8.28124 16.3333 8.10416 16.2083C6.77083 15.625 6 13.7292 6 12.1979C6 8.90625 8.33333 5.91667 12.8333 5.91667C16.4167 5.91667 19.2083 8.48959 19.2083 11.9063C19.2083 15.4896 16.9896 18.3646 13.8125 18.3646C12.8021 18.3646 11.8125 17.8229 11.4583 17.1875L10.7604 19.6563C10.5208 20.5521 9.86458 21.75 9.41666 22.4688V22.4375Z"/>
</svg>
