<svg width="25" height="25" viewBox="0 0 25 25" fill="currentColor" xmlns="http://www.w3.org/2000/svg">
<path d="M22.9766 7.23438C22.8521 6.77191 22.6083 6.35024 22.2697 6.01159C21.931 5.67294 21.5093 5.42917 21.0469 5.30469C19.3438 4.84375 12.5 4.84375 12.5 4.84375C12.5 4.84375 5.65625 4.84375 3.95313 5.30469C3.49066 5.42917 3.06899 5.67294 2.73034 6.01159C2.39169 6.35024 2.14792 6.77191 2.02344 7.23438C1.70543 8.9713 1.5511 10.7342 1.5625 12.5C1.5511 14.2658 1.70543 16.0287 2.02344 17.7656C2.14792 18.2281 2.39169 18.6498 2.73034 18.9884C3.06899 19.3271 3.49066 19.5708 3.95313 19.6953C5.65625 20.1562 12.5 20.1562 12.5 20.1562C12.5 20.1562 19.3438 20.1562 21.0469 19.6953C21.5093 19.5708 21.931 19.3271 22.2697 18.9884C22.6083 18.6498 22.8521 18.2281 22.9766 17.7656C23.2946 16.0287 23.4489 14.2658 23.4375 12.5C23.4489 10.7342 23.2946 8.9713 22.9766 7.23438ZM10.3125 15.7813V9.21875L15.9922 12.5L10.3125 15.7813Z"/>
</svg>
