<svg version="1.1" id="Layer_1" xmlns="http://www.w3.org/2000/svg" xmlns:xlink="http://www.w3.org/1999/xlink"
	 viewBox="0 0 2672.845 537.58" style="enable-background:new 0 0 2672.845 537.58;" xml:space="preserve" fill="currentColor" stroke="currentColor">
<g>
	<path d="M1336.423,317.208c14.793-2.171,29.608-4.628,44.441-7.375c-9.45-34.877,33.884-56.717,70.618-68.406
		c0.536,16.705-21.015,48.484-49.014,64.209c153.167-30.767,302.286-85.555,452.021-134.289
		c-6.985-33.544,35.208-54.691,71.13-66.122c0.44,13.727-14.045,37.623-34.751,54.442
		c227.843-72.305,587.243-168.253,702.348,39.456c79.643,143.712-51.813,319.375-300.66,249.116
		c-231.058-65.786-175.062-264.871-53.961-257.694c-89.229-2.233-140.208,107.985-58.771,187.751
		c93.712,93.35,372.375,119.682,414.45-55.441c16.665-68.35-18.884-149.853-104.952-193.748
		c-154.607-79.745-446.029,7.149-612.7,61.301c1.063,2.432,1.832,4.839,2.328,7.221c29.631,10.646,55.666,36.902,58.243,53.037
		c-23.556-2.784-50.272-8.884-66.736-21.547c-11.781,16.006-33.023,29.656-52.694,39.664c-3.194-16.202,12.52-50.399,37.091-70.555
		c0.009-0.241-0.001-0.472,0.014-0.715c-171.199,56.346-341.05,119.744-518.443,146.28
		c-177.393-26.536-347.244-89.934-518.443-146.28c0.014,0.243,0.004,0.474,0.014,0.715c24.572,20.155,40.286,54.352,37.091,70.555
		c-19.671-10.009-40.913-23.658-52.694-39.664c-16.464,12.663-43.181,18.763-66.736,21.547c2.577-16.135,28.612-42.39,58.243-53.037
		c0.497-2.381,1.265-4.788,2.328-7.221c-166.671-54.151-458.093-141.046-612.701-61.301
		C97.457,173.003,61.908,254.505,78.573,322.855c42.075,175.123,320.738,148.791,414.45,55.441
		c81.436-79.766,30.458-189.985-58.771-187.751c121.101-7.177,177.097,191.908-53.961,257.694
		C131.444,518.498-0.012,342.834,79.63,199.122C194.735-8.586,554.135,87.361,781.978,159.666
		c-20.706-16.818-35.191-40.715-34.751-54.442c35.922,11.431,78.115,32.578,71.13,66.122
		c149.735,48.735,298.854,103.522,452.021,134.289c-27.999-15.725-49.55-47.504-49.014-64.209
		c36.734,11.689,80.068,33.529,70.618,68.406C1306.814,312.58,1321.63,315.037,1336.423,317.208z"/>
	<path d="M1324.92,104.398c-40.778,21.704-57.453,61.439-48.711,94.748c8.183,30.806,31.783,48.225,60.214,55.467
		c28.431-7.242,52.031-24.661,60.214-55.467c8.742-33.309-7.934-73.043-48.711-94.748c-3.764-1.983-7.599-3.78-11.503-5.4
		C1332.519,100.618,1328.684,102.415,1324.92,104.398z M1291.545,147.586c10.531-18.244,25.952-30.569,44.878-38.278
		c18.926,7.71,34.346,20.035,44.878,38.278c22.713,39.342,4.238,86.572-44.878,101.32
		C1287.307,234.158,1268.832,186.929,1291.545,147.586z"/>
</g>
</svg>
