<svg version="1.1" id="Layer_1" xmlns="http://www.w3.org/2000/svg" xmlns:xlink="http://www.w3.org/1999/xlink"
	 viewBox="0 0 2334 1642.604" enable-background="new 0 0 2334 1642.604" xml:space="preserve" fill="currentColor" stroke="currentColor">
<g id="Layer_x0020_1">
	<g id="_800784512">
		<g>
			<path d="M1194.354,88.262c-4.427,12.173,5.346,27.4,19.983,25.541c24.743-2.794,28.065-33.876,9.661-48.435
				c-15.278-11.907-44.699-6.39-53.729,21.703c-15.367,47.81,36.858,78.683,74.903,57.037c-14.603,52.155,19.818,67.24,36.79,49.891
				c12.881-13.167,0.804-37.761,3.573-59.684c4.861-41.985,62.23-99.493,153.775-107.987c11.05-1.036,44.093-2.698,10.057-4.632
				c-105.005-5.899-177.387,55.35-200.49,111.824c-69.865,25.151-84.047-39.241-58.36-55.184c7.171-4.451,19.023-1.887,19.453,0.265
				C1209.97,78.602,1197.521,79.29,1194.354,88.262z M1139.646,1554.342c4.427-12.173-5.346-27.4-19.983-25.541
				c-24.743,2.794-28.065,33.876-9.661,48.435c15.278,11.907,44.699,6.39,53.729-21.703c15.367-47.81-36.858-78.683-74.903-57.037
				c14.603-52.155-19.818-67.24-36.79-49.891c-12.881,13.167-0.804,37.76-3.573,59.684c-4.861,41.985-62.23,99.493-153.775,107.987
				c-11.05,1.036-44.093,2.698-10.058,4.632c105.005,5.899,177.387-55.35,200.49-111.824c69.865-25.151,84.047,39.241,58.36,55.184
				c-7.171,4.451-19.023,1.887-19.453-0.265C1124.03,1564.002,1136.479,1563.314,1139.646,1554.342z M1209.97,1564.002
				c-0.43,2.152-12.283,4.716-19.453,0.265c-25.687-15.944-11.505-80.336,58.36-55.184c23.103,56.474,95.484,117.724,200.49,111.824
				c34.035-1.934,0.993-3.596-10.057-4.632c-91.545-8.494-148.914-66.002-153.775-107.987c-2.769-21.923,9.308-46.516-3.573-59.684
				c-16.972-17.349-51.393-2.264-36.79,49.891c-38.045-21.646-90.27,9.227-74.903,57.037c9.03,28.093,38.451,33.611,53.729,21.703
				c18.405-14.559,15.083-45.642-9.661-48.435c-14.637-1.859-24.41,13.368-19.983,25.541
				C1197.521,1563.314,1209.97,1564.002,1209.97,1564.002z M1124.03,78.602c0.43-2.152,12.283-4.716,19.453-0.265
				c25.687,15.944,11.505,80.336-58.36,55.184c-23.103-56.474-95.484-117.724-200.49-111.824
				c-34.035,1.934-0.993,3.596,10.058,4.632c91.545,8.494,148.914,66.002,153.775,107.987c2.769,21.923-9.308,46.516,3.573,59.684
				c16.972,17.349,51.393,2.264,36.79-49.891c38.045,21.646,90.27-9.227,74.903-57.037c-9.03-28.093-38.451-33.611-53.729-21.703
				c-18.405,14.559-15.083,45.642,9.661,48.435c14.637,1.859,24.41-13.368,19.983-25.541
				C1136.479,79.29,1124.03,78.602,1124.03,78.602z M2092.655,402.694c-49.733-47.522-2.518-112.123,38.377-101.899
				c22.014,5.503,41.232,29.467,30.834,53.729c-12.033,27.251-42.66,25.417-53.993,11.116c-9.314-11.753,0.663-32.052,17.336-37.054
				c6.617-1.853,13.366-1.191,12.969-3.176c-3.066-14.307-53.427-5.449-50.156,35.996c4.447,55.583,72.164,47.388,85.622,47.509
				c68.164,0.377,149.688-16.952,125.852-9.131c-40.311,13.437-252.213,53.497-408.92-42.083
				c12.607,68.439-61.558,112.021-137.63,104.414c-147.581-14.758-186.473-202.006-66.036-289.42
				c-51.421-48.691-108.218-76.262-169.92-40.363c-40.149,22.942-65.798-34.428,16.939-37.054
				c25.119-0.598,53.812,5.936,68.153,10.587c-93.493-61.016-166.259-37.628-193.741,5.426
				c-33.926,51.723,3.288,108.887,46.318,88.269c6.352-2.911,8.867-7.411,8.205-8.867c-0.662-1.588-4.367-0.265-9.264-0.132
				c-34.844,0.917-47.613-52.979-8.866-60.478c38.537-8.08,58.171,29.692,46.847,58.228c-19.659,51.606-99.82,45.728-113.016-20.248
				c-10.498-48.991-17.22,87.85,70.668,98.723c73.807,9.131,43.808-77.591,80.328-86.019c45.536-11.384,57.884,71.674-3.308,106.002
				c-76.044,43.009-150.831-6.279-165.95-79.27c-21.683-105.425,68.538-146.959,118.309-150.07
				c-105.331-13.739-162.086,82.624-132.072,165.685c10.539,29.167,32.123,53.023,30.173,69.741
				c-4.27,35.992-62.933,9.475-59.552-57.302c1.154-30.378,3.651-19.669-13.895,4.896c-52.17,73.038-141.599,51.663-129.293-14.557
				c5.095-28.787,33.141-47.436,60.478-30.04c51.1,31.855-19.871,73.889-33.481,36.26c-2.382-6.087-3.176-12.969-5.161-12.44
				c-8.968,3.203-8.445,50.725,34.143,51.214c58.045,0,94.468-80.933,88.136-95.812c-4.746-10.623-23.575-21.796-12.043-50.288
				c31.579-77.09,202.636-153.937,396.745,37.187c96.448-57.869,226.12-19.424,279.76,59.419
				c34.222-17.497,83.735-8.036,101.899,34.011c18.279,42.313-15.79,73.623-39.172,71.197c-22.253-2.309-42.955-35.624-21.174-52.67
				c11.654-9.374,24.071-0.625,17.204,16.542c-1.961,4.668-19.547,26.808,3.308,21.306c51.862-12.721,31.089-98.513-38.907-82.181
				c-5.029,1.191-9.925,3.044-14.689,5.426c25.276,44.808,24.182,106.035,14.954,148.879
				C2033.941,392.582,2064.234,398.845,2092.655,402.694z M241.345,1239.91c49.732,47.522,2.518,112.123-38.378,101.899
				c-22.014-5.503-41.232-29.467-30.834-53.729c12.033-27.251,42.66-25.417,53.993-11.116c9.314,11.753-0.663,32.052-17.336,37.054
				c-6.617,1.853-13.366,1.191-12.969,3.176c3.066,14.307,53.428,5.449,50.156-35.996c-4.447-55.583-72.164-47.388-85.622-47.509
				c-68.164-0.377-149.688,16.952-125.852,9.131c40.311-13.437,252.213-53.497,408.92,42.083
				c-12.607-68.439,61.558-112.021,137.63-104.414c147.581,14.758,186.473,202.006,66.036,289.42
				c51.421,48.691,108.218,76.262,169.92,40.363c40.149-22.942,65.798,34.428-16.939,37.054
				c-25.119,0.598-53.812-5.936-68.153-10.587c93.493,61.016,166.259,37.628,193.741-5.426
				c33.926-51.724-3.288-108.887-46.318-88.269c-6.352,2.911-8.867,7.411-8.205,8.867c0.662,1.588,4.367,0.265,9.264,0.132
				c34.845-0.917,47.613,52.979,8.867,60.478c-38.537,8.08-58.171-29.692-46.847-58.228c19.659-51.606,99.82-45.728,113.015,20.247
				c10.498,48.991,17.22-87.85-70.668-98.723c-73.806-9.131-43.808,77.591-80.328,86.019
				c-45.536,11.384-57.884-71.674,3.308-106.002c76.044-43.009,150.831,6.279,165.95,79.27
				c21.683,105.425-68.538,146.959-118.309,150.07c105.33,13.739,162.086-82.624,132.072-165.685
				c-10.539-29.167-32.123-53.022-30.173-69.741c4.27-35.992,62.933-9.475,59.551,57.302c-1.154,30.378-3.651,19.668,13.895-4.896
				c52.17-73.038,141.599-51.663,129.293,14.557c-5.095,28.787-33.141,47.436-60.478,30.04c-51.1-31.854,19.871-73.889,33.481-36.26
				c2.382,6.088,3.176,12.969,5.161,12.44c8.968-3.203,8.445-50.725-34.143-51.214c-58.045,0-94.468,80.932-88.136,95.812
				c4.746,10.623,23.575,21.796,12.043,50.288c-31.579,77.09-202.636,153.937-396.745-37.187
				c-96.448,57.869-226.12,19.424-279.76-59.419c-34.222,17.497-83.735,8.036-101.899-34.01
				c-18.279-42.313,15.79-73.624,39.172-71.197c22.253,2.309,42.955,35.624,21.174,52.67c-11.654,9.374-24.071,0.625-17.204-16.542
				c1.961-4.669,19.547-26.808-3.308-21.306c-51.862,12.721-31.089,98.513,38.907,82.181c5.029-1.191,9.925-3.044,14.689-5.426
				c-25.276-44.808-24.182-106.035-14.954-148.879C300.059,1250.022,269.766,1243.759,241.345,1239.91z M2005.974,1258.702
				c9.228,42.844,10.322,104.071-14.954,148.879c4.764,2.382,9.661,4.235,14.689,5.426c69.996,16.332,90.769-69.46,38.907-82.181
				c-22.855-5.502-5.269,16.638-3.308,21.306c6.867,17.167-5.55,25.916-17.204,16.542c-21.781-17.046-1.079-50.361,21.174-52.67
				c23.381-2.426,57.451,28.884,39.172,71.197c-18.164,42.047-67.677,51.508-101.899,34.01
				c-53.639,78.844-183.312,117.288-279.76,59.419c-194.109,191.123-365.166,114.276-396.745,37.187
				c-11.532-28.492,7.296-39.665,12.043-50.288c6.332-14.879-30.091-95.812-88.136-95.812c-42.588,0.49-43.111,48.011-34.143,51.214
				c1.985,0.529,2.779-6.352,5.161-12.44c13.61-37.628,84.581,4.406,33.481,36.26c-27.337,17.396-55.383-1.253-60.478-30.04
				c-12.306-66.22,77.123-87.595,129.293-14.557c17.546,24.565,15.049,35.274,13.895,4.896
				c-3.381-66.777,55.281-93.294,59.552-57.302c1.95,16.719-19.633,40.574-30.173,69.741
				c-30.014,83.062,26.741,179.424,132.072,165.685c-49.771-3.111-139.992-44.644-118.309-150.07
				c15.12-72.991,89.906-122.278,165.95-79.27c61.192,34.327,48.845,117.386,3.308,106.002c-36.52-8.428-6.522-95.15-80.328-86.019
				c-87.888,10.873-81.166,147.714-70.668,98.723c13.195-65.975,93.356-71.853,113.016-20.247
				c11.324,28.536-8.31,66.308-46.847,58.228c-38.746-7.499-25.978-61.395,8.866-60.478c4.896,0.132,8.602,1.456,9.264-0.132
				c0.662-1.456-1.853-5.955-8.205-8.867c-43.029-20.618-80.244,36.545-46.318,88.269c27.481,43.054,100.248,66.442,193.741,5.426
				c-14.341,4.651-43.034,11.185-68.153,10.587c-82.737-2.627-57.088-59.996-16.939-37.054
				c61.702,35.899,118.499,8.328,169.92-40.363c-120.437-87.414-81.545-274.662,66.036-289.42
				c76.072-7.607,150.237,35.974,137.63,104.414c156.707-95.58,368.61-55.52,408.92-42.083c23.835,7.821-57.688-9.508-125.852-9.131
				c-13.458,0.121-81.175-8.074-85.622,47.509c-3.272,41.445,47.09,50.303,50.156,35.996c0.397-1.985-6.352-1.323-12.969-3.176
				c-16.673-5.002-26.65-25.301-17.336-37.054c11.333-14.301,41.96-16.135,53.993,11.116c10.398,24.261-8.821,48.225-30.834,53.729
				c-40.896,10.224-88.11-54.377-38.377-101.899C2064.234,1243.759,2033.941,1250.022,2005.974,1258.702z M328.026,383.902
				c-9.228-42.844-10.322-104.071,14.954-148.879c-4.764-2.382-9.661-4.235-14.689-5.426c-69.996-16.332-90.769,69.46-38.907,82.181
				c22.856,5.502,5.269-16.638,3.308-21.306c-6.867-17.167,5.55-25.916,17.204-16.542c21.781,17.046,1.079,50.361-21.174,52.67
				c-23.382,2.426-57.451-28.884-39.172-71.197c18.164-42.047,67.677-51.508,101.899-34.011
				c53.639-78.843,183.312-117.288,279.76-59.419c194.109-191.123,365.166-114.276,396.745-37.187
				c11.532,28.492-7.296,39.665-12.043,50.288c-6.332,14.879,30.091,95.812,88.136,95.812c42.588-0.49,43.111-48.011,34.143-51.214
				c-1.985-0.529-2.779,6.352-5.161,12.44c-13.61,37.628-84.581-4.406-33.481-36.26c27.337-17.396,55.383,1.253,60.478,30.04
				c12.306,66.22-77.123,87.595-129.293,14.557c-17.546-24.565-15.049-35.274-13.895-4.896
				c3.381,66.777-55.281,93.294-59.551,57.302c-1.951-16.719,19.633-40.574,30.173-69.741
				c30.014-83.062-26.741-179.424-132.072-165.685c49.771,3.111,139.992,44.644,118.309,150.07
				c-15.12,72.991-89.906,122.278-165.95,79.27c-61.192-34.327-48.845-117.386-3.308-106.002
				c36.52,8.428,6.522,95.149,80.328,86.019c87.888-10.873,81.166-147.714,70.668-98.723
				c-13.195,65.975-93.356,71.853-113.015,20.248c-11.324-28.536,8.31-66.308,46.847-58.228
				c38.746,7.499,25.978,61.395-8.867,60.478c-4.896-0.132-8.602-1.456-9.264,0.132c-0.662,1.456,1.853,5.955,8.205,8.867
				c43.029,20.618,80.244-36.545,46.318-88.269c-27.481-43.054-100.248-66.442-193.741-5.426
				c14.341-4.651,43.034-11.185,68.153-10.587c82.737,2.627,57.088,59.996,16.939,37.054
				c-61.702-35.899-118.499-8.328-169.92,40.363c120.437,87.414,81.545,274.662-66.036,289.42
				c-76.072,7.607-150.237-35.974-137.63-104.414c-156.707,95.58-368.61,55.52-408.92,42.083
				c-23.836-7.821,57.688,9.508,125.852,9.131c13.458-0.121,81.175,8.074,85.622-47.509c3.272-41.445-47.09-50.303-50.156-35.996
				c-0.397,1.985,6.352,1.323,12.969,3.176c16.673,5.002,26.65,25.301,17.336,37.054c-11.333,14.301-41.96,16.135-53.993-11.116
				c-10.398-24.261,8.821-48.225,30.834-53.729c40.896-10.224,88.11,54.377,38.378,101.899
				C269.766,398.845,300.059,392.582,328.026,383.902z M1977.257,373.977c-52.798-53.45-34.282-118.375-8.999-142.394
				c-60.925-79.095-182.117-97.889-251.969-55.978c63.29,63.893,131.494,132.271,211.606,175.611
				c-62.483-60.59-35.985-163.028-1.72-128.764c20.449,19.911-26.176,25.361-12.175,80.328
				C1923.264,339.305,1943.511,360.876,1977.257,373.977z M356.743,1268.627c52.798,53.45,34.282,118.375,8.999,142.394
				c60.925,79.095,182.117,97.889,251.969,55.978c-63.29-63.893-131.494-132.271-211.606-175.611
				c62.483,60.59,35.985,163.028,1.72,128.764c-20.449-19.911,26.176-25.361,12.175-80.328
				C410.736,1303.299,390.489,1281.728,356.743,1268.627z M1914,1339.824c-14.001,54.967,32.624,60.418,12.175,80.328
				c-34.265,34.264-60.763-68.174,1.72-128.764c-80.112,43.339-148.316,111.718-211.606,175.611
				c69.852,41.911,191.044,23.117,251.969-55.978c-25.283-24.019-43.8-88.944,8.999-142.394
				C1943.511,1281.728,1923.264,1303.299,1914,1339.824z M420,302.78c14.001-54.967-32.624-60.418-12.175-80.328
				c34.264-34.264,60.763,68.174-1.72,128.764c80.112-43.339,148.316-111.718,211.606-175.611
				c-69.852-41.911-191.044-23.117-251.969,55.978c25.283,24.019,43.799,88.944-8.999,142.394
				C390.489,360.876,410.736,339.305,420,302.78z M1977.125,244.419c-27.763,24.497-35.379,75.653,12.704,134.189
				c1.456,0.529,2.911,1.059,4.367,1.456C2002.845,333.257,2003.196,287.25,1977.125,244.419z M356.875,1398.184
				c27.763-24.497,35.379-75.653-12.704-134.189c-1.456-0.529-2.911-1.059-4.367-1.456
				C331.155,1309.347,330.804,1355.354,356.875,1398.184z M1994.196,1262.539c-1.456,0.397-2.911,0.926-4.367,1.456
				c-48.083,58.536-40.468,109.692-12.704,134.189C2003.196,1355.354,2002.845,1309.347,1994.196,1262.539z M339.804,380.064
				c1.456-0.397,2.911-0.926,4.367-1.456c48.083-58.536,40.468-109.692,12.704-134.189
				C330.804,287.25,331.155,333.257,339.804,380.064z M1699.88,185.397c-77.286,51.798-89.96,177.071-13.498,235.691
				c78.611,61.201,212.182,12.269,190.697-59.154c-24.582-80.216-171.419-46.836-146.232,29.776
				c6.58,19.739,29.161,16.715,28.982,12.043c0-4.669-26.047-26.644,0.265-43.803c20.678-12.998,51.026-0.232,52.008,28.585
				c2.27,66.597-125.944,48.55-106.663-30.437c11.84-48.507,63.038-62.761,111.692-57.037
				C1782.802,269.184,1704.556,190.016,1699.88,185.397z M634.12,1457.207c77.286-51.798,89.96-177.071,13.498-235.691
				c-78.611-61.201-212.182-12.269-190.697,59.154c24.582,80.216,171.419,46.836,146.232-29.776
				c-6.58-19.739-29.161-16.714-28.982-12.043c0,4.669,26.047,26.644-0.265,43.803c-20.678,12.998-51.026,0.232-52.008-28.585
				c-2.27-66.597,125.944-48.55,106.663,30.437c-11.84,48.507-63.038,62.761-111.692,57.037
				C551.197,1373.42,629.444,1452.588,634.12,1457.207z M1817.13,1341.544c-48.655,5.724-99.852-8.53-111.692-57.037
				c-19.28-78.988,108.934-97.035,106.663-30.437c-0.982,28.817-31.33,41.583-52.008,28.585
				c-26.312-17.16-0.265-39.134-0.265-43.803c0.18-4.672-22.402-7.696-28.982,12.043c-25.188,76.612,121.65,109.991,146.232,29.776
				c21.485-71.423-112.086-120.355-190.697-59.154c-76.462,58.621-63.788,183.893,13.498,235.691
				C1704.556,1452.588,1782.802,1373.42,1817.13,1341.544z M516.87,301.06c48.654-5.724,99.852,8.53,111.692,57.037
				c19.28,78.988-108.934,97.035-106.663,30.437c0.982-28.817,31.33-41.582,52.008-28.585c26.312,17.16,0.265,39.134,0.265,43.803
				c-0.18,4.672,22.402,7.696,28.982-12.043c25.187-76.612-121.65-109.991-146.232-29.776
				c-21.485,71.423,112.086,120.355,190.697,59.154c76.462-58.621,63.788-183.893-13.498-235.691
				C629.444,190.016,551.197,269.184,516.87,301.06z"/>
		</g>
	</g>
</g>
</svg>
