<svg preserveAspectRatio="none" xmlns="http://www.w3.org/2000/svg" viewBox="0 0 1000 100" fill="currentColor" stroke="currentColor">
<g fill="currentColor" stroke="currentColor">
	<g opacity=".7" fill="currentColor">
		<path d="M0 88s25 13 65 15c8 1 16-1 24-3a149 149 0 0030-12l17-10a220 220 0 0162-28 80 80 0 0121-1 95 95 0 0132 10l-7-5a75 75 0 00-22-8c-27-4-53 6-77 17-11 6-22 12-33 16a165 165 0 01-36 8 136 136 0 01-40-2c-12-2-25-5-36-11z"></path>
		<path d="M0 51v24c0 2 11 4 13 5 20 8 42 9 64 7 21-2 39-9 58-18 20-10 44-22 67-23 0 0-18-2-52 10-20 7-41 14-63 16A187 187 0 010 51z" opacity=".5"></path>
	</g>
	<g opacity=".7" fill="currentColor">
		<path d="M501 88s26 13 66 15c8 1 16-1 23-3a150 150 0 0030-12l17-10a223 223 0 0163-28 80 80 0 0121-1 95 95 0 0132 10l-7-5a75 75 0 00-22-8c-27-4-53 6-77 17-11 6-22 12-34 16a166 166 0 01-35 8 137 137 0 01-41-2c-12-2-24-4-36-10z"></path>
		<path d="M501 51v24c0 3 12 5 13 6 20 7 43 8 65 6 21-2 39-9 58-18 20-10 44-22 67-23 0 0-18-2-52 10-20 7-42 14-64 16-20 2-38-3-57-9l-30-12z" opacity=".5"></path>
	</g>
	<g opacity=".7" fill="currentColor">
		<path d="M501 89s-22 12-62 14c-8 1-16-1-24-3a150 150 0 01-30-12l-17-10a223 223 0 00-63-28 81 81 0 00-22-1 96 96 0 00-32 10l8-5a76 76 0 0122-8c27-4 53 6 77 17 11 6 22 12 34 16a167 167 0 0036 8 138 138 0 0040-2c13-2 22-4 34-10z"></path>
		<path d="M501 51v24c0 3-8 4-10 5-20 8-43 9-65 7-20-2-39-9-57-18-21-10-45-22-68-23 0 0 18-2 52 10 21 7 42 14 64 16a158 158 0 0084-21z" opacity=".5"></path>
	</g>
	<g opacity=".7" fill="currentColor">
		<path d="M1007 88s-26 13-66 15c-8 1-16-1-24-3a151 151 0 01-30-12l-17-10a223 223 0 00-62-28 81 81 0 00-22-1 96 96 0 00-33 10l8-5a76 76 0 0122-8c27-4 53 6 77 17 12 6 22 12 34 16a167 167 0 0036 8 138 138 0 0041-2c12-2 24-5 36-11z"></path>
		<path d="M1007 51v24c0 2-12 4-13 5-20 8-43 9-65 7-21-2-40-9-58-18-21-10-45-22-68-23 0 0 19-2 52 10 21 7 42 14 64 16a190 190 0 0087-21z" opacity=".5"></path>
	</g>
	<g opacity="1" fill="currentColor">
		<path d="M456 91a157 157 0 01-55-4c-22-6-22-12-51-22-18-6-31-11-49-10-23 1-40 10-50 16-9-6-27-15-50-16-17-1-31 4-49 10-28 10-28 16-50 22a157 157 0 01-55 4A154 154 0 010 79v22h502l-1-22a149 149 0 01-45 12zM958 91a157 157 0 01-55-4c-22-6-22-12-51-22-18-6-31-11-48-10-24 1-41 10-51 16-9-6-26-15-50-16-17-1-30 4-48 10-29 10-29 16-51 22a157 157 0 01-55 4c-21-2-38-7-47-12v22h503V79a154 154 0 01-47 12z"></path>
	</g>
</g>
</svg>
