<?xml version="1.0" encoding="UTF-8" standalone="no"?>
<!-- Created with Inkscape (http://www.inkscape.org/) -->

<svg
   xmlns:dc="http://purl.org/dc/elements/1.1/"
   xmlns:cc="http://creativecommons.org/ns#"
   xmlns:rdf="http://www.w3.org/1999/02/22-rdf-syntax-ns#"
   xmlns:svg="http://www.w3.org/2000/svg"
   xmlns="http://www.w3.org/2000/svg"
   xmlns:sodipodi="http://sodipodi.sourceforge.net/DTD/sodipodi-0.dtd"
   xmlns:inkscape="http://www.inkscape.org/namespaces/inkscape"
   id="svg4156"
   version="1.1"
   inkscape:version="0.91 r13725"
   viewBox="0 0 312.1875 429.375"
   sodipodi:docname="Flower11.svg">
  <metadata
     id="metadata4162">
    <rdf:RDF>
      <cc:Work
         rdf:about="">
        <dc:format>image/svg+xml</dc:format>
        <dc:type
           rdf:resource="http://purl.org/dc/dcmitype/StillImage" />
        <dc:title></dc:title>
      </cc:Work>
    </rdf:RDF>
  </metadata>
  <defs
     id="defs4160" />
  <sodipodi:namedview
     pagecolor="#ffffff"
     bordercolor="#666666"
     borderopacity="1"
     objecttolerance="10"
     gridtolerance="10"
     guidetolerance="10"
     inkscape:pageopacity="0"
     inkscape:pageshadow="2"
     inkscape:window-width="1600"
     inkscape:window-height="837"
     id="namedview4158"
     showgrid="false"
     inkscape:zoom="1.5604076"
     inkscape:cx="156.09375"
     inkscape:cy="214.6875"
     inkscape:window-x="-8"
     inkscape:window-y="-8"
     inkscape:window-maximized="1"
     inkscape:current-layer="svg4156" />
  <path
		fill="currentColor"
     d="m 10.3125,428.14506 c 0,-0.67648 1.371094,-2.2427 3.046875,-3.4805 6.230341,-4.60199 11.277086,-9.89743 13.358254,-14.01652 1.178741,-2.33298 3.90147,-7.51132 6.050507,-11.50742 l 3.907341,-7.26562 -2.943478,0 c -2.710303,0 -2.902881,-0.20423 -2.431003,-2.57813 0.281861,-1.41796 0.964712,-5.32031 1.517447,-8.67187 0.552734,-3.35156 1.496387,-7.35938 2.097004,-8.90625 1.541551,-3.97022 8.579067,-14.5653 19.602012,-29.5111 6.497351,-8.80964 9.681065,-16.79384 4.985671,-12.5032 -4.378287,4.00087 -15.8988,18.55908 -18.248559,23.06029 -2.482924,4.7563 -3.457021,5.33198 -6.738078,3.98217 -1.158653,-0.47667 -1.981367,0.13258 -3.09991,2.29561 -4.199568,8.12107 -9.956039,11.84909 -14.52258,9.40515 -1.756323,-0.93995 -4.063543,1.53544 -11.0482772,11.8536 -2.5016213,3.69551 -5.84962397,4.28434 -5.83856384,1.02685 C 0.01546298,378.88327 2.3411172,371.31294 6.5593056,360 c 4.3124664,-11.56579 4.2551224,-11.25 2.0428648,-11.25 -2.849958,0 -3.3365964,-1.58839 -1.4077967,-4.59503 6.2125403,-9.68424 6.5046853,-9.95144 15.8998043,-14.54171 5.087264,-2.48553 12.822585,-6.26299 17.189603,-8.39433 16.146261,-7.88027 12.2637,-8.91122 -9.001754,-2.39026 -1.615199,0.4953 -6.361292,1.16461 -10.546875,1.48739 -8.281694,0.63863 -9.12034,0.0697 -6.14959,-4.17161 1.780226,-2.54162 1.262796,-3.55291 -2.169063,-4.23928 C 8.9246618,311.20681 4.6875,307.7816 4.6875,305.65726 c 0,-2.02107 1.7218032,-2.81095 6.4048,-2.93821 5.940418,-0.16143 8.12645,-1.15764 8.12645,-3.70341 0,-2.23892 0.224769,-2.31034 8.90625,-2.83004 8.337372,-0.49909 13.125,-1.8036 13.125,-3.5762 0,-0.41918 1.785827,-1.56448 3.968504,-2.54515 3.039193,-1.36547 5.728508,-1.72708 11.484375,-1.5442 11.200184,0.35587 25.801621,2.08185 29.037739,3.43245 4.8888,2.04037 9.825057,2.58749 13.224019,1.46573 4.139503,-1.36616 4.068483,-2.86551 -0.292762,-6.18012 -3.717197,-2.82514 -9.597346,-8.86279 -9.604896,-9.86219 -0.0024,-0.32606 -1.58651,-2.24512 -3.520104,-4.26459 -1.933594,-2.01947 -4.578709,-5.08147 -5.878033,-6.80444 -2.742644,-3.63688 -5.411644,-3.4554 -7.535126,0.51236 -1.593852,2.97814 -7.269122,5.98125 -11.393243,6.02883 -2.513897,0.029 -3.556094,0.71792 -5.636016,3.72553 -1.570195,2.27053 -3.553652,3.90464 -5.15625,4.24806 -3.007265,0.64441 -5.223576,1.63552 -9.166957,4.09936 -5.173771,3.23259 -6.555195,3.2156 -10.081764,-0.12399 -1.787852,-1.69306 -3.54881,-4.02751 -3.91324,-5.18767 -0.743444,-2.36674 -1.264204,-2.49907 -4.69768,-1.19366 -1.619484,0.61572 -3.134936,0.58472 -4.625989,-0.0947 -1.88402,-0.85842 -2.821012,-0.57318 -6.230696,1.89679 -4.31148,3.12322 -6.1577824,3.59575 -6.7801413,1.73527 -0.7686723,-2.29786 2.0969179,-14.10852 4.3601036,-17.97035 2.2461187,-3.83272 2.2582527,-3.9566 0.4953377,-5.05755 -2.4898264,-1.55493 -2.332166,-5.92278 0.302194,-8.37205 1.160156,-1.07865 5.0625,-3.07193 8.671875,-4.42952 3.609375,-1.35761 8.102227,-3.27905 9.984115,-4.26989 1.881889,-0.99085 5.256889,-2.08206 7.5,-2.42493 4.719887,-0.72145 7.614279,-2.00835 6.946639,-3.08861 -0.877135,-1.41924 -15.4914,-2.09855 -18.869261,-0.8771 -1.74384,0.63058 -3.480013,0.83711 -3.858163,0.45896 -0.378149,-0.37815 -0.705159,-2.6418 -0.726688,-5.03032 -0.03523,-3.90912 -0.291532,-4.41067 -2.566599,-5.02264 -1.390101,-0.37392 -4.886346,-2.51542 -7.7694317,-4.75886 -4.4554455,-3.46698 -5.1638687,-4.43068 -4.7214179,-6.42276 0.6832908,-3.07643 10.3462696,-12.01643 14.0160456,-12.96737 3.980272,-1.03139 4.02478,-3.15091 0.156089,-7.43309 -1.816315,-2.01044 -4.156613,-5.52014 -5.200663,-7.79932 -1.044048,-2.27919 -2.392606,-4.8249 -2.996793,-5.65717 -1.4749161,-2.03167 -0.3714867,-4.58055 1.982955,-4.58055 2.535805,0 2.422124,-2.24212 -0.204952,-4.04224 C 2.9176817,166.01652 0.55394213,160.44113 5.15625,156.17586 7.1175193,154.35821 7.5,153.14878 7.5,148.76473 7.5,142.65286 8.9920795,138.75 11.328674,138.75 c 1.887074,0 9.854706,5.82951 12.415224,9.08358 3.431426,4.36087 4.378821,4.9325 7.229874,4.36229 2.152243,-0.43044 2.776228,-0.21774 2.776228,0.9464 0,2.77448 4.205405,11.85511 5.490927,11.85643 0.867364,8.9e-4 1.037752,-0.52076 0.535466,-1.63933 -0.405191,-0.90234 -0.766733,-9.93866 -0.803427,-20.0807 -0.06398,-17.68396 -0.151623,-18.53046 -2.137408,-20.64425 -1.788361,-1.90363 -2.171834,-3.73543 -2.8125,-13.43492 l -0.741808,-11.23075 -13.429667,0 c -12.3333573,0 -13.5450914,-0.153066 -14.8435978,-1.875 C 3.2717239,93.791306 3.8519609,86.887885 6.1971279,81.945812 8.6307631,76.817307 16.513237,68.665935 19.72002,67.961607 23.36416,67.161219 23.251547,65.356665 19.453125,63.684813 15.487353,61.939303 12.364088,55.649597 12.036979,48.75 11.420162,35.739704 12.147912,26.506609 13.967293,24.259768 c 2.008972,-2.480975 1.232757,-2.608016 17.438957,2.854195 7.085453,2.388114 9.000446,3.485664 11.950589,6.8493 l 3.513089,4.005487 0.01856,-6.5625 C 46.926997,17.796493 51.604223,6.7741716 59.380214,1.9683455 63.433001,-0.53641507 65.727765,0.21775028 69.33426,5.2397049 70.967619,7.5141172 72.681882,9.375 73.143733,9.375 c 0.461851,0 1.952514,1.898824 3.312583,4.219608 1.997128,3.407841 2.478822,5.436844 2.503872,10.546875 0.01874,3.822413 -0.578309,7.776026 -1.508142,9.986836 -1.702319,4.047506 -1.319655,5.290761 1.108545,3.601609 5.845835,-4.066595 9.931951,-5.071299 18.001909,-4.426351 8.67757,0.69351 13.76079,2.319332 14.67148,4.692548 1.04791,2.730802 -4.15445,15.714151 -8.7264,21.778154 -1.26703,1.680541 -3.966758,3.903959 -5.999389,4.940929 -2.032632,1.03697 -3.695691,2.317382 -3.695691,2.845361 0,0.527978 2.110434,3.747777 4.689844,7.155107 5.706666,7.538322 6.869086,11.426325 6.013176,20.112421 -0.42574,4.320656 -0.23305,8.326623 0.55942,11.629993 1.96864,8.20622 -0.53786,9.33422 -14.727922,6.62803 -7.673652,-1.46346 -14.066818,-4.82883 -17.495225,-9.20953 l -2.347474,-2.99951 -0.595083,2.76459 c -0.327295,1.52052 -1.274012,4.03021 -2.103815,5.57708 -2.260927,4.2147 -14.08239,16.64831 -17.562355,18.47179 -2.925642,1.53301 -3.067086,1.87 -3.541402,8.4375 -0.589186,8.15801 2.490695,39.72667 4.060301,41.61794 1.519628,1.83104 3.660354,1.64607 3.75111,-0.32411 0.04157,-0.90234 0.994432,-3.32812 2.117479,-5.39062 4.034483,-7.40941 7.883141,-3.06813 8.047397,9.07745 0.0632,4.67311 0.331131,5.4083 2.181424,5.98573 3.278992,1.02329 3.558085,2.13008 2.939121,11.65557 -0.401136,6.17323 -0.19923,10.20083 0.657961,13.125 l 1.236687,4.21875 0.657753,-6.5625 c 0.361764,-3.60937 1.142683,-9.28367 1.735375,-12.60955 1.066251,-5.98324 0.645037,-12.07197 -1.059579,-15.31648 -1.256055,-2.39073 -0.0755,-5.26019 2.422054,-5.88704 2.034428,-0.5106 2.115175,-0.86501 1.693638,-7.43346 -0.579823,-9.03487 0.09215,-11.5271 3.325018,-12.33198 2.969543,-0.73933 3.883233,-1.80749 7.328636,-8.56766 5.318337,-10.43503 10.220623,-8.35892 13.502741,5.71837 0.86433,3.70717 1.95929,6.66609 2.43324,6.57538 0.47395,-0.0908 1.54965,-0.43291 2.39045,-0.76048 1.08558,-0.42293 2.14039,0.39417 3.63895,2.81888 2.72644,4.41147 2.16607,11.7634 -1.35449,17.7708 -1.32382,2.2589 -2.40693,4.35883 -2.40693,4.66649 0,0.30767 1.08774,0.97295 2.4172,1.47841 2.12479,0.80784 2.34227,1.28703 1.79779,3.96117 -0.34069,1.67318 -2.58858,5.87863 -4.99533,9.34543 -9.105794,13.11646 -12.34466,18.89415 -12.34466,22.02121 0,1.85624 0.466016,3.06995 1.171875,3.05207 1.079916,-0.0274 6.608316,-7.68274 10.532105,-14.58419 0.9053,-1.59233 3.81023,-4.19596 6.45539,-5.78586 2.64516,-1.58989 6.26324,-4.40037 8.04016,-6.24549 3.32348,-3.45102 8.06811,-4.60225 8.99651,-2.18289 0.33372,0.86967 4.30284,1.17187 15.39129,1.17187 10.3324,0 15.28742,0.34545 16.06261,1.11984 1.68944,1.68771 -3.09497,10.75478 -7.80011,14.7822 -3.73694,3.19869 -3.79995,3.34763 -2.1755,5.14262 3.42515,3.78476 -0.50507,8.49625 -8.46738,10.15057 -2.56128,0.53215 -3.98217,1.51719 -5.08007,3.52178 -2.15654,3.93747 -9.09204,6.03022 -22.96898,6.93075 -8.66314,0.56219 -12.168281,1.19792 -15.236025,2.76339 -4.502124,2.29742 -5.362222,5.19602 -1.806609,6.08842 3.709068,0.93091 10.771924,6.9924 13.427434,11.52371 3.63977,6.21078 4.78248,12.32714 3.87882,20.76136 -0.76287,7.12 -0.31636,8.56649 2.65686,8.60726 0.57593,0.007 3.06282,-2.98997 5.52642,-6.66192 2.46361,-3.67194 5.66818,-7.73557 7.12128,-9.03029 4.98515,-4.44177 14.43518,-9.65563 20.99267,-11.58225 15.24547,-4.47919 18.20736,-6.26799 21.05112,-12.71353 1.22235,-2.77052 1.34529,-4.77295 0.67464,-10.98962 -0.45104,-4.18098 -0.88489,-11.6096 -0.96411,-16.50804 -0.11478,-7.09721 -0.56561,-9.76316 -2.21954,-13.125 -2.98084,-6.05898 -3.12803,-8.82511 -0.48974,-9.20351 1.16317,-0.16684 3.44284,0.35914 5.06591,1.16883 3.82576,1.90855 4.28786,1.86211 5.03962,-0.50645 1.07983,-3.40226 7.03487,-9.27137 9.40712,-9.27137 1.73279,0 2.39464,0.73473 3.16694,3.51562 0.53698,1.9336 0.97869,4.04297 0.98156,4.6875 0.008,1.8251 3.00779,1.38987 8.04947,-1.16794 2.5366,-1.28691 5.13935,-2.3416 5.78388,-2.34375 2.81978,-0.009 -0.22605,11.03249 -4.90603,17.7857 -2.34062,3.37753 -7.98459,18.40833 -7.98459,21.26427 0,2.70165 -4.92022,13.94201 -7.60574,17.3755 -1.48871,1.90336 -2.70676,3.90727 -2.70676,4.45312 0,3.64413 14.03043,-3.6454 22.30509,-11.58864 2.72875,-2.61945 7.34774,-8.34857 10.26445,-12.73138 9.40242,-14.12867 18.27294,-21.54733 24.03502,-20.10113 1.68268,0.42232 3.38786,-0.31319 6.80476,-2.93516 5.53708,-4.2489 11.83193,-7.17204 13.81001,-6.41298 0.80262,0.30799 1.74315,1.47023 2.09009,2.58275 1.03823,3.32928 2.33239,3.41598 8.03333,0.53815 4.14059,-2.09016 7.62102,-2.97047 14.59415,-3.69133 5.03627,-0.52063 9.89721,-1.18014 10.8021,-1.46559 1.036,-0.32681 1.87626,0.0831 2.26913,1.10685 0.71646,1.86707 -0.18437,2.65198 -11.88313,10.35397 -9.66584,6.36361 -9.15172,5.89202 -7.47285,6.8547 6.08571,3.48961 8.41035,5.32637 8.41035,6.64525 0,2.23407 -4.20521,3.8113 -8.38128,3.14352 -3.87216,-0.61918 -16.93122,1.21875 -16.93122,2.3829 0,0.97704 2.92313,3.39817 4.99117,4.13402 2.23382,0.79483 1.64996,3.83978 -0.782,4.07824 -10.97336,1.07591 -12.82517,1.54667 -17.75024,4.5124 -2.90023,1.74643 -8.52823,4.31554 -12.50666,5.70913 -3.97844,1.39359 -8.92102,3.27581 -10.98352,4.1827 -2.0625,0.90689 -4.38281,1.89517 -5.15625,2.19616 -2.44723,0.95237 4.90967,-0.16459 11.25,-1.70804 12.00642,-2.92276 15.61876,-3.40045 26.20114,-3.46483 8.23146,-0.0501 11.78955,-0.48198 15.26908,-1.85348 5.19637,-2.04823 9.98972,-2.32957 10.50051,-0.61633 1.38568,4.64763 1.12228,4.48289 4.4658,2.79324 1.73892,-0.87877 5.35369,-1.5765 8.25097,-1.59264 4.73779,-0.0263 5.18204,0.15373 5.474,2.21932 0.42133,2.98087 -2.60816,9.11019 -5.1899,10.50032 -3.33031,1.79318 -3.3303,3.45758 2e-5,4.18904 6.49359,1.42624 8.69909,3.26865 13.62979,11.38599 5.25418,8.64988 5.42873,9.25261 3.4402,11.87898 -1.15803,1.52946 -1.15405,2.11722 0.0298,4.40657 1.41924,2.74449 1.85121,11.80901 0.6486,13.61009 -0.37882,0.56734 -1.57888,1.49977 -2.6668,2.07206 -1.56776,0.82472 -2.10639,2.26356 -2.59695,6.93722 -1.20292,11.4606 -1.9935,15.07984 -3.50072,16.02622 -2.16657,1.36038 -4.57088,0.13395 -4.63782,-2.36574 -0.0315,-1.17633 -0.78845,-4.4591 -1.68209,-7.29504 -1.54551,-4.90455 -1.77858,-5.15625 -4.77482,-5.15625 -3.09777,0 -3.1692,-0.0936 -4.30861,-5.64287 -1.37026,-6.67361 -3.72009,-12.63838 -4.9789,-12.63838 -0.49355,0 -1.19244,2.14543 -1.55308,4.76763 -0.46246,3.36242 -1.49629,5.72498 -3.50766,8.01581 -3.75899,4.28124 -6.22443,3.94077 -7.7097,-1.06469 -1.33901,-4.51256 -4.12718,-10.0712 -5.49254,-10.95021 -0.5448,-0.35074 -1.72383,-0.24527 -2.62006,0.23438 -2.89908,1.55153 -3.51988,0.9827 -6.89145,-6.31463 -1.92918,-4.17543 -4.83994,-8.63214 -6.94685,-10.63639 -3.37484,-3.21042 -14.21315,-8.4269 -17.50859,-8.4269 -2.3905,0 1.00271,4.95214 9.20349,13.43179 4.03501,4.17221 7.26563,8.32957 7.26563,9.34987 0,1.62462 -0.49131,1.78182 -4.24636,1.35856 -3.99202,-0.44996 -4.20961,-0.35899 -3.63276,1.51871 0.33749,1.09852 2.03742,4.4457 3.77762,7.43818 1.7402,2.99246 3.164,5.84012 3.164,6.32812 0,0.488 -1.24073,0.88727 -2.75717,0.88727 -1.51644,0 -3.00142,0.3952 -3.29995,0.87823 -0.29853,0.48303 0.30918,3.11975 1.35045,5.85938 1.04127,2.73962 1.89344,5.69452 1.8937,6.56643 6.4e-4,2.15017 0.91507,2.58451 7.72777,3.6706 9.98969,1.59255 18.32218,8.76937 24.85082,21.40417 3.74368,7.24508 3.98304,8.17355 3.96212,15.36917 -0.018,6.1906 -0.49532,8.73628 -2.49076,13.28327 -2.97676,6.78318 -2.99676,8.55512 -0.23428,20.76026 1.93214,8.53656 2.03151,10.05102 0.97055,14.79192 -1.39795,6.24668 -4.0164,8.6441 -7.84939,7.1868 -1.30857,-0.49752 -2.71205,-1.44311 -3.11884,-2.10131 -0.4068,-0.6582 -0.78445,-5.85219 -0.83922,-11.5422 -0.0919,-9.54541 -0.32748,-10.82735 -3.04628,-16.57662 -4.16609,-8.80975 -14.13736,-17.31008 -29.547,-25.18828 -13.33276,-6.8164 -25.98351,-11.45597 -30.13401,-11.05143 -2.38927,0.23288 -2.96012,0.74271 -3.2039,2.86148 -0.2824,2.45429 -0.10544,2.57813 3.6839,2.57813 6.41071,0 15.49496,3.50931 17.57067,6.78766 1.47375,2.32762 1.5939,3.26037 0.71871,5.57904 -0.95855,2.53948 -0.82145,2.95131 1.56002,4.68608 4.57269,3.33097 8.06253,12.68142 5.35709,14.35347 -0.51563,0.31867 -0.9375,4.11031 -0.9375,8.42587 0,11.44221 -2.24025,12.89332 -12.35809,8.00491 -2.16238,-1.04474 -5.09103,-1.89953 -6.50812,-1.89953 -2.09276,0 -3.3359,-1.08269 -6.62079,-5.76622 l -4.04425,-5.76622 -0.62164,4.1256 c -0.93934,6.23401 -3.06939,9.56915 -9.4816,14.84584 -7.22757,5.94766 -9.4097,6.6172 -12.40266,3.80546 -2.13628,-2.00694 -2.41959,-2.04155 -5.80747,-0.70955 -4.85163,1.90749 -15.65096,3.94574 -17.38343,3.28093 -2.12603,-0.81584 -2.74036,-7.8411 -1.28718,-14.71981 0.88724,-4.1998 0.9879,-6.52835 0.32791,-7.58516 -2.32351,-3.72055 1.42436,-11.20057 7.31738,-14.60404 2.40219,-1.38736 1.43489,-2.27178 -3.50863,-3.20798 -2.21522,-0.41952 -5.60971,-1.42905 -7.5433,-2.24339 -4.7937,-2.01889 -4.73211,-5.11137 0.23437,-11.76796 2.0625,-2.76438 3.75,-5.55204 3.75,-6.19481 0,-0.64278 1.57268,-2.46502 3.49485,-4.04944 2.50891,-2.06805 4.47413,-2.88075 6.96605,-2.88075 2.88558,0 3.52173,-0.35573 3.77077,-2.10861 0.76666,-5.39615 15.10778,-5.13404 22.07584,0.40349 3.56655,2.83433 7.09285,3.19491 7.50705,0.76762 0.25395,-1.48826 -6.38662,-4.92008 -23.65831,-12.22652 -5.15625,-2.18125 -10.20715,-4.54136 -11.22423,-5.24469 -2.1513,-1.48768 -7.6185,-1.70816 -8.46327,-0.34129 -0.31867,0.51563 -2.98029,0.93472 -5.91471,0.93132 -6.01087,-0.007 -7.34123,-0.72394 -15.17904,-8.18053 -2.83594,-2.698 -5.47266,-4.91285 -5.85937,-4.92187 -1.06691,-0.0249 -0.84036,4.15885 0.28619,5.2854 0.54412,0.54412 1.70428,2.25948 2.57812,3.81192 0.87384,1.55243 2.87826,4.7314 4.45424,7.06437 1.57599,2.33297 3.8704,7.19366 5.0987,10.80153 2.21046,6.49282 2.21512,6.58714 0.45664,9.24319 -1.56401,2.36229 -1.78151,4.58859 -1.81744,18.60349 -0.0361,14.06731 -0.22198,15.95548 -1.59741,16.22442 -0.94007,0.18382 -2.22899,-0.83394 -3.2543,-2.56966 -0.93376,-1.58072 -2.13174,-2.73009 -2.66219,-2.55415 -0.53043,0.17595 -1.25348,2.90584 -1.60677,6.06644 -0.78314,7.00629 -3.76295,12.38306 -11.36858,20.51351 -6.2464,6.67742 -9.71308,7.91 -8.75355,3.11234 0.31001,-1.55006 0.29955,-7.43429 -0.0232,-13.07608 l -0.58691,-10.25779 -2.90643,-0.2833 -2.90644,-0.2833 -0.25,-8.90625 c -0.32458,-11.56289 -0.44121,-11.83478 -3.960659,-9.23274 -1.774088,1.31164 -3.163379,1.76429 -3.715878,1.21067 -1.217601,-1.22004 1.958243,-15.15765 6.575796,-28.85869 2.057431,-6.10473 3.973761,-13.48754 4.258521,-16.40625 0.5289,-5.42106 -0.53481,-12.80674 -1.84448,-12.80674 -0.63542,0 -2.485225,4.3568 -8.358903,19.6875 -3.545042,9.2528 -4.67325,14.58837 -4.955867,23.4375 -0.402629,12.60688 -0.924504,14.97743 -3.561805,16.17907 -1.787363,0.81437 -2.285455,1.93785 -2.71824,6.13112 -0.354528,3.43506 -1.409087,6.44158 -3.186682,9.08516 -1.461242,2.17311 -3.375373,5.24233 -4.253627,6.82048 -2.495324,4.48391 -3.574164,4.64528 -7.477842,1.11855 -3.94012,-3.55966 -5.809273,-3.45456 -7.153775,0.40229 -1.031034,2.95762 -7.572342,9.68389 -12.431956,12.78347 -1.841344,1.17445 -5.427281,2.83486 -7.96875,3.68978 -2.54147,0.85493 -6.108005,2.57641 -7.925637,3.82551 -6.305068,4.33294 -21.538966,7.08484 -21.538966,3.89088 z m 24.059137,-10.49111 c 9.24582,-4.49782 14.699829,-7.88916 17.470815,-10.86347 2.302851,-2.47182 4.407548,-7.69966 4.407548,-10.94787 0,-5.10608 3.531514,-6.35215 7.448701,-2.62822 1.317277,1.25228 3.524117,2.55584 4.90409,2.89679 2.176258,0.53768 2.816063,0.14244 4.823865,-2.98001 1.273154,-1.97996 2.823449,-5.21203 3.445099,-7.18239 1.05828,-3.35427 0.982056,-5.24271 -0.500849,-12.40836 -0.764962,-3.69643 1.295991,-5.74855 4.208076,-4.19005 2.467192,1.3204 2.575847,0.98817 3.211294,-9.81912 0.55383,-9.41918 3.044677,-17.79712 8.365364,-28.13678 1.854019,-3.60289 4.105548,-9.2299 5.003401,-12.50446 1.825978,-6.65949 4.816969,-9.76067 7.370179,-7.6417 2.30216,1.91063 3.50438,8.36086 3.40763,18.28294 -0.0826,8.47214 -0.46154,10.41328 -3.93472,20.15625 -7.797202,21.8727 -7.920877,22.61451 -3.14382,18.85687 2.95583,-2.32505 5.85042,-2.56852 6.62231,-0.55701 0.30072,0.78367 -0.35921,3.53084 -1.4665,6.10481 -1.58631,3.6875 -1.88171,5.67169 -1.39292,9.3564 0.66311,4.9987 1.53601,5.61662 4.34424,3.07522 1.37356,-1.24306 2.12401,-1.36743 3.35507,-0.556 0.87215,0.57488 1.39945,1.61183 1.17176,2.30434 -0.85567,2.60247 -1.13973,19.76791 -0.34036,20.56728 1.27752,1.27752 7.73309,-8.00979 9.34838,-13.44908 0.78044,-2.62805 1.17227,-6.01188 0.87073,-7.51963 -1.23089,-6.1544 1.71041,-9.63607 5.30857,-6.28387 1.10925,1.03342 2.45778,1.72773 2.99674,1.54291 1.37599,-0.47188 1.19294,-10.79685 -0.36492,-20.58314 -0.99855,-6.27283 -1.05035,-8.49516 -0.21738,-9.32813 0.6014,-0.6014 1.09347,-1.90696 1.09347,-2.90122 0,-1.84369 -4.57227,-10.54468 -7.66389,-14.58431 -0.94111,-1.22969 -1.71111,-2.8811 -1.71111,-3.6698 0,-0.7887 -1.47656,-4.54478 -3.28125,-8.34685 -1.80469,-3.80206 -3.28125,-7.75373 -3.28125,-8.78148 0,-4.65915 6.51252,-2.33009 11.44379,4.09261 7.67869,10.0011 17.61871,15.94368 17.61871,10.53325 0,-0.78962 0.10547,-1.43322 0.23437,-1.43024 0.12891,0.003 2.73418,0.41479 5.78949,0.91512 4.42878,0.72525 6.7573,0.58935 11.48437,-0.67024 3.2611,-0.86895 5.92927,-1.84902 5.92927,-2.17791 0,-0.32891 -0.84375,-1.57086 -1.875,-2.7599 -1.03125,-1.18904 -1.87658,-2.62469 -1.87852,-3.19032 -0.005,-1.32969 -7.2477,-4.30968 -10.47508,-4.30968 -2.95666,0 -3.60725,-1.38165 -2.29172,-4.86689 0.53178,-1.40885 0.63425,-2.89405 0.22771,-3.30045 -0.40653,-0.40641 -4.56943,-0.75345 -9.25085,-0.77122 -7.10991,-0.027 -8.67957,-0.30542 -9.53099,-1.69069 -0.80164,-1.30425 -0.66896,-1.85784 0.62132,-2.59241 5.87242,-3.34318 -5.57685,-8.34084 -19.10823,-8.34084 -7.55689,0 -8.31558,1.4056 -1.91099,3.54047 2.43142,0.81047 4.89742,2.5669 6.43604,4.58413 3.38306,4.43542 17.32009,14.20356 23.17897,16.24559 10.10263,3.52114 12.69132,5.63814 6.87296,5.62065 -3.3753,-0.0101 -11.53123,-3.50682 -15.81506,-6.78037 -1.52349,-1.16419 -5.81296,-4.79042 -9.53215,-8.05829 -7.45533,-6.55062 -13.5333,-10.16229 -14.8634,-8.83219 -0.94632,0.94632 2.12599,11.87624 4.81159,17.11751 2.34196,4.57061 6.14116,19.42718 8.15124,31.875 0.29143,1.80469 1.06695,3.59467 1.72341,3.97774 1.38492,0.80816 3.77275,9.88325 2.84467,10.81134 -0.93978,0.93978 -2.32565,-1.69056 -2.9926,-5.67986 -0.88404,-5.28783 -1.67645,-3.36573 -2.36286,5.73142 -0.73215,9.70335 -2.62916,25.74555 -3.10012,26.21653 -0.18419,0.18418 -0.33488,-8.39155 -0.33488,-19.05717 0,-11.35565 -0.37907,-19.77111 -0.91469,-20.30673 -0.5946,-0.59459 -1.99167,0.42545 -3.99214,2.91477 -1.69259,2.1062 -3.42871,3.82946 -3.85803,3.82946 -1.60823,0 -0.69117,-2.85099 1.87426,-5.82675 6.82474,-7.91633 6.15344,-19.88103 -2.17159,-38.7045 -0.68414,-1.54687 -1.98958,-4.85769 -2.90098,-7.35737 -0.9114,-2.49967 -2.2157,-4.75922 -2.89842,-5.02121 -1.69921,-0.65204 -7.88312,4.88079 -10.059529,9.00041 -0.980049,1.85509 -3.982875,6.53815 -6.672945,10.40678 -6.377229,9.17121 -15.216541,26.29562 -16.919271,32.77773 -1.724331,6.56435 -1.703679,17.82328 0.04475,24.39354 0.922012,3.46475 1.058294,5.44621 0.418585,6.08591 -2.190604,2.19061 -4.607932,-5.74577 -4.615228,-15.15233 -0.0029,-3.70785 -0.412083,-6.993 -0.909351,-7.30033 -1.308241,-0.80854 -5.066475,7.12208 -7.990275,16.86106 -2.833548,9.43836 -9.954395,24.72494 -12.656617,27.17041 -2.263972,2.04887 -4.463734,0.96899 -2.555588,-1.25455 0.730421,-0.85115 2.31215,-3.34052 3.514954,-5.53192 1.202802,-2.19141 2.47837,-3.98438 2.834594,-3.98438 0.356223,0 0.916362,-1.34341 1.244752,-2.98536 0.328389,-1.64194 1.283874,-3.74427 2.123299,-4.67182 0.8409,-0.92919 1.697264,-3.85526 1.907127,-6.51638 l 0.380899,-4.82991 -3.793261,0.60656 c -2.982669,0.47694 -3.793262,0.31305 -3.793262,-0.767 0,-1.3542 1.12628,-2.32995 7.407393,-6.41734 3.01872,-1.96442 4.748981,-4.6816 12.962601,-20.35625 10.058047,-19.19451 12.694788,-23.78233 17.511196,-30.46875 2.971347,-4.125 6.210506,-8.37094 7.19813,-9.43542 1.731961,-1.86675 2.405537,-4.15833 1.222278,-4.15833 -0.315372,0 -4.428654,1.43224 -9.140625,3.18275 -9.522084,3.53747 -17.185459,5.1891 -16.126448,3.47558 1.404856,-2.27311 -2.373371,-1.94921 -8.227871,0.70535 -5.468427,2.4795 -10.532438,5.84956 -15.859232,10.55419 -0.941334,0.83138 -7.840605,4.53212 -15.331714,8.22388 -10.522486,5.18566 -13.550342,7.08068 -13.313061,8.33213 0.183537,0.968 1.341411,1.73925 2.877245,1.91651 2.98259,0.34426 3.356881,2.32722 0.779961,4.13216 C 16.013031,346.52988 5.625,366.75278 5.625,369.10126 c 0,2.45378 2.1111815,0.74386 6.09194,-4.93409 4.345674,-6.19844 7.740007,-7.61047 7.200342,-2.9953 -0.240289,2.05493 0.0797,2.57813 1.576787,2.57813 2.278555,0 5.144023,-3.79766 9.505931,-12.59839 3.3225,-6.70359 5.830598,-8.47324 6.393329,-4.51099 0.407738,2.87094 1.442082,2.64876 3.045958,-0.65426 2.300141,-4.73691 18.850701,-22.6796 23.808352,-25.81096 6.235483,-3.93847 7.954673,-4.51552 8.582047,-2.88062 0.814251,2.12191 -8.833778,20.93908 -13.358888,26.05469 -1.031051,1.16561 -2.531216,3.17397 -3.3337,4.46303 -0.802482,1.28906 -4.192372,5.38461 -7.533088,9.1012 -6.067525,6.75022 -9.485973,13.55137 -10.761247,21.40995 -0.505611,3.11572 -0.414006,3.23885 2.409573,3.23885 2.773611,0 2.935164,0.19608 2.935164,3.5625 0,1.95937 -0.364277,3.96328 -0.809504,4.45312 -0.445227,0.48985 -2.008634,4.05469 -3.474238,7.92188 -2.872885,7.58048 -9.902066,19.17446 -12.147457,20.0361 -1.364356,0.52355 -1.998718,4.3389 -0.721412,4.3389 0.36294,0 4.564476,-1.89947 9.336748,-4.22105 z M 23.501315,345.23437 c 2.873412,-3.82987 15.617899,-15.77024 20.430742,-19.14164 2.86917,-2.00986 6.501017,-4.8006 8.070771,-6.20163 2.845357,-2.53955 10.86369,-6.7661 12.836181,-6.7661 1.397914,0 -2.948069,3.34024 -5.307759,4.07944 -1.03125,0.32305 -2.929688,1.55923 -4.21875,2.74707 -1.289063,1.18783 -4.453125,3.59533 -7.03125,5.35 -4.747051,3.23085 -8.374511,6.43587 -18.315829,16.18286 -5.2503,5.14768 -9.256345,7.47169 -6.464106,3.75 z m 140.407215,69.89469 c 1.72001,-0.5239 4.55343,-2.20472 6.2965,-3.73515 3.81935,-3.35344 7.11456,-3.28332 7.9238,0.16859 0.3022,1.28906 1.00877,2.34375 1.57017,2.34375 0.56138,0 3.60096,-2.38449 6.7546,-5.29888 5.19634,-4.8021 5.7339,-5.65332 5.7339,-9.07959 0,-2.0794 -0.39422,-4.81759 -0.87605,-6.08489 -1.18451,-3.11552 -0.34745,-5.78549 2.24955,-7.17537 3.38137,-1.80965 5.71302,-0.43591 7.57252,4.4615 2.15142,5.66628 5.25578,10.4945 6.7571,10.50937 0.64454,0.007 1.17188,-0.43961 1.17188,-0.99109 0,-2.06724 4.13662,-0.29532 5.62382,2.40895 1.21542,2.21009 2.28482,2.87482 4.9927,3.10347 3.28949,0.27775 3.44598,0.15931 3.44598,-2.60824 0,-1.59456 -0.63281,-4.41374 -1.40625,-6.26483 -0.77344,-1.8511 -1.40625,-4.32367 -1.40625,-5.49459 0,-1.17092 0.63281,-2.37179 1.40625,-2.66859 0.77344,-0.29679 1.40625,-1.14198 1.40625,-1.87818 0,-1.7635 -6.14121,-7.10846 -9.52122,-8.28675 -1.9051,-0.66411 -2.66628,-1.55543 -2.66628,-3.12211 0,-1.78719 0.56197,-2.24696 3.0392,-2.48641 4.40853,-0.42614 4.3876,-2.83285 -0.0416,-4.78703 -5.18644,-2.28825 -13.33591,-2.1187 -16.46488,0.34255 -3.77811,2.97186 -3.17014,4.86825 2.16862,6.76441 3.04803,1.08257 5.36272,2.68512 6.74983,4.67318 1.16107,1.66409 2.65954,3.36299 3.32995,3.77533 0.67041,0.41234 1.21892,1.17876 1.21892,1.70317 0,0.52441 1.05469,2.33624 2.34375,4.02629 1.28906,1.69005 2.34375,3.3494 2.34375,3.68745 0,1.79 -1.9782,-0.0185 -5.97598,-5.46314 -3.32519,-4.52868 -5.57281,-6.56886 -8.81844,-8.00456 -2.3957,-1.05973 -5.01369,-2.52215 -5.81774,-3.2498 -1.91115,-1.72956 -2.90693,-0.97127 -6.14032,4.67588 -7.01994,12.26039 -18.88222,26.71875 -21.92125,26.71875 -1.89263,0 -2.01724,-1.9938 -0.22136,-3.54182 6.43205,-5.54428 18.89508,-23.6923 18.89508,-27.51405 0,-5.73047 -8.64081,-8.52849 -19.82216,-6.41872 -7.28375,1.37434 -8.72303,0.90814 -4.91225,-1.59113 1.89113,-1.24027 4.86282,-1.8049 10.72702,-2.03812 6.89276,-0.27414 8.71404,-0.0151 12.12399,1.72456 3.24426,1.6551 4.16518,1.80664 4.80872,0.79134 1.18066,-1.86274 0.96511,-8.43016 -0.36101,-10.99965 -1.74443,-3.37999 -7.00092,-5.82415 -11.86603,-5.51748 -5.02906,0.31702 -5.69499,1.5973 -1.94184,3.73334 3.03779,1.72891 3.75399,4.86987 1.32313,5.80268 -2.91972,1.1204 -7.16825,0.53705 -9.51125,-1.30595 -2.78968,-2.19436 -7.32527,-2.47422 -8.08333,-0.49878 -0.29045,0.75693 -0.12466,1.62558 0.36845,1.93033 1.92816,1.19167 0.67139,2.49079 -4.72844,4.88781 -4.91514,2.18186 -5.625,2.82383 -5.625,5.08707 0,1.72417 0.70522,2.9702 2.10937,3.72702 2.73938,1.47648 12.27285,1.37593 18.39861,-0.19406 3.28944,-0.84306 5.12584,-0.93057 5.78093,-0.27548 1.57457,1.57457 0.1843,3.44021 -4.98993,6.69611 -6.36176,4.00316 -12.86148,9.92296 -12.86148,11.71393 0,0.77712 0.63281,1.65578 1.40625,1.95258 1.91905,0.7364 1.76468,3.24896 -0.46875,7.62972 -1.17755,2.30969 -1.875,5.52861 -1.875,8.65358 0,5.53527 -0.19992,5.46571 8.28353,2.88173 z m 107.14745,-36.14469 c 0.55527,-1.41796 1.05312,-5.95312 1.10634,-10.07812 0.11238,-8.71109 -1.41349,-12.62405 -8.307,-21.30261 -3.24076,-4.07996 -5.72462,-6.06335 -10.36933,-8.28007 -7.58328,-3.61916 -8.94205,-3.27008 -8.27618,2.12631 1.01976,8.26447 -2.93798,8.42232 -6.46721,0.25793 -1.11313,-2.57503 -2.33778,-5.16373 -2.72148,-5.75267 -0.83659,-1.2841 -6.69481,-0.15565 -12.41624,2.39168 -5.70139,2.53843 -17.45994,10.41224 -16.90069,11.31712 0.27123,0.43885 2.26767,1.09772 4.43655,1.46415 2.16887,0.36642 4.59244,1.02708 5.3857,1.46812 0.79328,0.44104 6.08293,2.76966 11.75481,5.17471 23.97592,10.16655 26.60002,11.60966 34.99743,19.24667 2.74858,2.49971 5.39574,4.54491 5.88258,4.54491 0.48683,0 1.33946,-1.16016 1.89472,-2.57813 z m -67.55291,-34.6875 c 4.63598,-4.4109 21.35012,-13.35734 24.95722,-13.35863 3.34462,-9.4e-4 3.44218,-1.70972 0.3369,-5.8992 -1.60835,-2.16991 -4.12668,-5.66739 -5.59628,-7.77218 l -2.67201,-3.82689 -7.84258,0.27296 -7.84257,0.27296 -0.75488,4.02268 c -1.4406,7.67679 -5.69595,19.20158 -7.59761,20.57657 -1.58328,1.14479 -3.26978,-0.29556 -4.3864,-3.74617 -2.47014,-7.63326 -5.5652,-12.44419 -8.90313,-13.83887 -3.37236,-1.40905 -5.52224,-4.21682 -9.08918,-11.87056 -1.14428,-2.45532 -2.78614,-4.68817 -3.6486,-4.9619 -2.06832,-0.65646 -8.27645,-7.56653 -8.27645,-9.21224 0,-0.70906 -0.82146,-1.868 -1.82547,-2.57543 -1.16708,-0.82232 -2.24149,-3.36263 -2.97894,-7.04329 -1.01674,-5.07465 -0.95341,-6.28093 0.5344,-10.17668 0.92833,-2.43079 2.96438,-5.87348 4.52456,-7.65044 2.07558,-2.36394 2.55797,-3.50954 1.79788,-4.26963 -1.62035,-1.62035 -12.55389,1.64944 -21.40751,6.40213 -14.77182,7.92964 -23.39493,21.58971 -14.29917,22.65164 4.89802,0.57186 6.46635,1.26932 9.6895,4.30916 2.7234,2.56849 16.707,9.59081 24.19913,12.15237 1.17042,0.40016 1.64474,1.57694 1.65497,4.10598 0.007,1.94977 0.34056,4.05839 0.73923,4.68581 0.39868,0.62742 3.55629,2.42459 7.0169,3.99371 3.63344,1.64748 6.29202,3.43756 6.29202,4.23655 0,0.76099 -1.6875,2.50035 -3.75,3.86525 -2.0625,1.3649 -3.75,3.0722 -3.75,3.79401 0,1.81399 24.37172,13.29109 28.44357,13.39461 0.94866,0.0241 2.94418,-1.11631 4.4345,-2.53427 z m -4.45137,-24.47658 c 1.33156,-5.29442 1.34857,-6.61046 0.15211,-11.76952 -0.74091,-3.1947 -3.62863,-10.63727 -6.41716,-16.53904 -5.90629,-12.50029 -9.49799,-22.70725 -8.71157,-24.75664 1.08589,-2.82981 3.5604,-1.31462 13.33746,8.16678 10.70564,10.3819 12.28151,12.72451 15.34543,22.81184 1.92814,6.34797 2.11686,6.60156 4.63748,6.23161 2.2827,-0.33503 3.01088,0.20998 5.54841,4.15264 4.14529,6.44076 6.63055,9.97093 11.31406,16.07103 l 4.10165,5.34226 -0.62289,-4.14559 c -0.34259,-2.28007 -1.87194,-6.99141 -3.39854,-10.46964 -3.37465,-7.68882 -3.41928,-8.6968 -0.44516,-10.05189 2.58174,-1.17632 2.46237,-1.99452 -1.39366,-9.55294 -1.16406,-2.28176 -1.86167,-5.25035 -1.73566,-7.38589 0.51812,-8.7812 -9.65954,-18.71625 -22.27829,-21.74724 -2.51851,-0.60495 -5.42287,-1.60606 -6.45412,-2.22469 -8.27232,-4.96247 -6.45818,-1.75114 5.625,9.95715 9.24833,8.96139 12.41838,12.96448 10.26658,12.96448 -0.28308,0 -4.08246,-3.74913 -8.44308,-8.33139 -6.15195,-6.46465 -9.34505,-9.00868 -14.25095,-11.35409 -3.47741,-1.66248 -7.62618,-3.66827 -9.21951,-4.45731 -1.99202,-0.98649 -3.99592,-1.22846 -6.41501,-0.77464 -3.25063,0.60983 -3.47067,0.85149 -2.89493,3.17934 0.34271,1.38563 1.68988,5.05059 2.99372,8.14434 1.30383,3.09375 3.56111,9 5.01617,13.125 1.45507,4.125 3.31105,9.06848 4.12442,10.98551 1.54098,3.63197 2.07992,11.15916 0.68682,9.59262 -0.43561,-0.48985 -2.13616,-5.32032 -3.77901,-10.73438 -3.7485,-12.35334 -7.67324,-22.5 -8.70302,-22.5 -0.43365,0 -0.78845,0.34124 -0.78845,0.75832 0,0.41707 -0.66115,1.57723 -1.46922,2.57812 -1.37585,1.70414 -1.43967,1.55589 -1.00418,-2.3326 0.51187,-4.57037 -2.32326,-11.74543 -4.37382,-11.06913 -0.61685,0.20345 -2.35122,2.1147 -3.85417,4.24723 -3.35912,4.76624 -4.62569,13.82914 -2.06973,14.80995 0.94944,0.36434 1.52885,1.69111 1.54171,3.53029 0.0113,1.62061 0.83445,4.73954 1.82916,6.93095 1.66893,3.67673 2.08515,3.98437 5.39061,3.98437 l 3.58204,0 1.18284,6.32813 c 1.27937,6.84454 2.95455,8.95298 6.42185,8.08275 1.93724,-0.48622 2.51079,0.13046 5.03244,5.4108 2.61424,5.47422 3.73103,7.53457 5.93549,10.9503 1.20371,1.8651 2.87543,-1.05681 4.65668,-8.13919 z m 103.40734,-13.53168 c -0.43205,-5.93889 -0.27336,-7.38542 0.84851,-7.73438 4.60418,-1.43213 4.42814,-1.14316 2.6092,-4.2829 -0.9339,-1.61203 -2.60316,-3.53345 -3.70945,-4.26981 -3.74593,-2.49332 -3.24065,-6.87652 0.7927,-6.87652 2.31937,0 2.1404,-0.86979 -1.22412,-5.94929 C 297.77638,271.13757 295.84513,270 289.59369,270 c -3.21059,0 -5.70117,-0.48144 -6.31466,-1.22066 -1.38204,-1.66526 -0.33186,-5.15905 1.74926,-5.81957 2.24477,-0.71246 8.40921,-7.58029 8.40921,-9.36872 0,-2.30169 -4.28409,-1.64724 -9.87609,1.50868 -5.98571,3.37812 -7.93641,2.74494 -7.93641,-2.57614 0,-3.4973 -0.32333,-3.53671 -8.4375,-1.02835 -1.80469,0.5579 -6.97436,0.94002 -11.48817,0.84917 -4.51381,-0.0908 -11.89662,0.47646 -16.40625,1.26067 -19.18513,3.33629 -15.68279,4.31304 20.65619,5.76077 8.13616,0.32414 15.04568,0.99816 15.35449,1.49782 0.99557,1.61089 -1.88031,2.54477 -7.88188,2.55948 -3.22266,0.007 -5.85938,0.38428 -5.85938,0.83641 0,0.45212 2.21484,1.7615 4.92188,2.90972 6.47339,2.74578 12.88684,6.7813 12.88894,8.11007 9.3e-4,0.58333 1.58371,2.25367 3.51731,3.71186 4.30695,3.24801 5.59352,4.73361 7.23357,8.35254 0.70101,1.54688 2.36611,3.83526 3.70019,5.08529 2.37459,2.22499 3.3555,6.63346 1.47598,6.63346 -0.5223,0 -2.05911,-2.34323 -3.41512,-5.20717 -2.85096,-6.02133 -13.35575,-17.18809 -17.96533,-19.09744 -4.45213,-1.84414 -5.45804,-0.34294 -2.96944,4.43153 2.05216,3.93716 2.21801,8.67682 0.32534,9.29739 -0.62336,0.20438 -1.55387,-1.71695 -2.23518,-4.6152 -1.44951,-6.16609 -2.94373,-9.16298 -6.70378,-13.44544 -3.98737,-4.54136 -9.07267,-6.95269 -17.91997,-8.49722 -8.96717,-1.56546 -31.6048,-1.57118 -31.60356,-0.008 9.4e-4,1.35103 9.20148,4.74273 21.09292,7.77585 5.15625,1.31519 10.42969,2.93985 11.71875,3.61035 3.26721,1.69943 7.54194,6.10512 10.3125,10.62842 1.77322,2.89501 2.94483,3.83261 4.81299,3.85169 2.09563,0.0214 2.77506,0.77872 4.4904,5.00503 1.11164,2.7389 2.80345,5.64964 3.75959,6.4683 0.95612,0.81868 2.15276,2.22887 2.65917,3.13378 2.1531,3.84738 4.90285,-0.87373 4.90285,-8.41783 0,-3.3244 1.42072,-5.22656 3.9037,-5.22656 2.24435,0 5.98227,5.74013 8.32787,12.7887 1.54288,4.63635 2.44806,5.99301 4.46853,6.69735 1.39355,0.48579 3.14569,2.10095 3.89365,3.58923 2.50049,4.97546 3.06674,5.41275 4.52405,3.49375 0.98106,-1.29187 1.17669,-3.5604 0.77874,-9.03042 z M 43.125,310.89016 c 11.766301,-4.47422 25.064167,-6.90653 30.226235,-5.5287 3.146844,0.83994 4.763097,0.69385 9.516572,-0.86018 3.149268,-1.02957 6.147818,-2.20721 6.663443,-2.61698 0.515625,-0.40977 1.78125,-0.95515 2.8125,-1.21197 3.347494,-0.83363 -26.104216,0.19331 -30.9375,1.07875 -2.578125,0.4723 -8.0625,1.51378 -12.1875,2.3144 -11.289952,2.19124 -14.53125,2.56773 -14.53125,1.68784 0,-1.50007 26.224028,-6.27935 40.770322,-7.43032 6.738948,-0.53322 8.485693,-0.97573 8.721773,-2.20954 0.237728,-1.2424 -0.85532,-1.68425 -5.614072,-2.26941 -3.2501,-0.39965 -8.440523,-0.80512 -11.534273,-0.90103 -3.09375,-0.0959 -7.90218,-0.51193 -10.6854,-0.92445 l -5.0604,-0.75005 0.610716,2.43328 c 0.335894,1.33831 0.229589,2.66884 -0.236233,2.95673 -0.465822,0.2879 -5.002527,0.95304 -10.081566,1.4781 -11.333025,1.17159 -12.515867,1.52684 -12.515867,3.75906 0,2.13274 -5.399696,3.48009 -8.117563,2.02553 -2.176996,-1.16509 -8.17381,1.0955 -7.599546,2.86477 0.211143,0.65052 2.462775,1.85753 5.003628,2.68224 3.798075,1.2328 4.604265,1.8788 4.532773,3.63215 -0.08335,2.04429 0.149716,2.11285 5.625,1.65455 3.242184,-0.27138 9.562902,-1.94246 14.618208,-3.86477 z m 164.97834,-11.17324 c -2.87945,-9.47998 -4.64196,-12.48473 -11.3349,-19.32386 -9.22865,-9.43023 -8.32007,-5.24264 3.33895,15.38887 3.49638,6.18713 7.0471,12.03698 7.89047,12.99967 1.48747,1.69793 1.5426,1.68912 1.84084,-0.29442 0.16909,-1.12464 -0.61181,-5.07125 -1.73536,-8.77026 z M 41.975714,277.67406 c 3.181899,-3.4883 4.626873,-4.39281 7.017581,-4.39281 2.741451,0 3.30606,-0.54482 6.315132,-6.09375 2.342087,-4.31897 3.916067,-6.181 5.404293,-6.39333 1.65426,-0.23601 2.102826,0.16181 2.114136,1.875 0.03021,4.57498 1.394225,5.09656 5.63778,2.15577 5.363742,-3.71707 6.179782,-6.21724 3.495007,-10.70797 -1.163741,-1.94655 -3.46912,-4.67603 -5.123065,-6.0655 -2.55413,-2.14573 -3.542793,-2.42977 -6.5625,-1.88541 -1.95543,0.35251 -3.977203,0.9318 -4.492828,1.28731 -0.515625,0.35552 -2.756333,1.22031 -4.979349,1.92179 -4.407584,1.39079 -4.707092,1.77786 -7.254225,9.37484 -0.950839,2.83594 -2.278671,5.774 -2.950738,6.52902 -2.270068,2.55027 -1.394572,-3.84379 1.131278,-8.26212 1.281847,-2.24227 2.095618,-4.45712 1.808379,-4.92187 -0.649223,-1.05047 -2.95851,-1.11013 -3.380345,-0.0874 -0.482461,1.16984 -8.942583,6.74235 -10.23609,6.74235 -1.868893,0 1.813905,-3.51136 4.350534,-4.14802 1.241737,-0.31165 2.862417,-1.73603 3.601512,-3.16529 1.211524,-2.34283 2.251455,-2.77169 10.563927,-4.35651 5.902008,-1.12526 9.726195,-2.34788 10.626367,-3.39731 0.773437,-0.90169 2.25,-1.79628 3.28125,-1.98798 1.03125,-0.19169 -1.759336,-0.92151 -6.201302,-1.6218 -7.147294,-1.12681 -8.582209,-1.10089 -12.474385,0.22531 -2.418946,0.82422 -5.112735,2.33125 -5.986198,3.34897 -1.098702,1.28016 -3.671231,2.15975 -8.347685,2.85423 -7.602787,1.12905 -15.405426,3.74339 -15.937642,5.34004 -0.19426,0.58278 0.719861,1.32892 2.03138,1.65809 2.968991,0.74517 3.054337,2.71178 0.214722,4.94785 -1.193422,0.93977 -2.877025,2.78883 -3.741339,4.10902 -2.1948976,3.35259 -4.5105343,11.45916 -3.5481921,12.42151 0.4400764,0.44008 2.5161881,-0.0774 4.6230011,-1.15215 2.103307,-1.07303 5.03689,-1.95096 6.519075,-1.95096 1.812435,0 3.515461,-0.92096 5.20083,-2.8125 1.378272,-1.54688 2.909726,-2.8125 3.403232,-2.8125 1.584847,0 2.838253,3.50644 2.838253,7.9401 0,5.43881 2.255236,9.20683 5.045403,8.4298 1.092215,-0.30418 3.788981,-2.5298 5.992811,-4.94584 z m 64.390726,-1.47737 c 0.55753,-5.94961 0.36149,-7.59723 -1.38777,-11.66349 -2.38452,-5.54296 -11.887475,-15.1582 -14.981188,-15.1582 -1.109192,0 -3.249886,1.23317 -4.757097,2.74039 -4.225987,4.22599 -3.681559,6.93282 2.900911,14.42299 3.084787,3.51016 5.65737,6.88516 5.716845,7.5 0.05944,0.61483 0.164943,1.72274 0.234375,2.46202 0.06947,0.73928 1.487587,1.69804 3.151472,2.13057 1.663875,0.43254 3.471682,1.62064 4.017352,2.64023 0.54568,1.01958 1.77148,1.8538 2.724,1.8538 1.46937,0 1.83028,-1.05016 2.3811,-6.92831 z m 104.10231,-22.97715 c 8.70012,-2.31792 29.00274,-10.94898 33.90548,-14.41393 2.14802,-1.51809 5.28055,-3.04139 6.96117,-3.3851 3.5751,-0.73119 4.57096,-2.46481 1.82793,-3.18213 -1.14303,-0.2989 -1.91333,-1.27592 -1.91333,-2.42679 0,-2.58696 7.24903,-4.85547 17.57812,-5.50092 4.25391,-0.26581 7.73438,-0.83743 7.73438,-1.27025 0,-1.36069 -3.49318,-2.72792 -6.96962,-2.72792 -4.73662,0 -4.26557,-2.01232 1.16263,-4.96672 2.47803,-1.34871 5.32469,-3.35739 6.32591,-4.46372 1.00123,-1.10634 2.98155,-2.61197 4.40074,-3.34587 4.24273,-2.194 3.17268,-3.4425 -2.54415,-2.96841 -3.25046,0.26956 -7.14406,1.48359 -10.64694,3.31976 -3.03736,1.59214 -7.48134,3.18854 -9.87551,3.54758 l -4.35306,0.65278 0,-2.91896 c 0,-4.6876 -2.94155,-3.68152 -10.65295,3.64356 -7.37874,7.00908 -10.90955,8.3977 -10.90955,4.2906 0,-2.21706 -0.0687,-2.23763 -2.846,-0.85212 -1.56529,0.78087 -4.58944,3.77979 -6.72033,6.66426 -2.13088,2.88447 -4.41607,5.90464 -5.07821,6.7115 -0.66214,0.80686 -3.80828,5.00088 -6.99145,9.32005 -3.18316,4.31919 -7.09114,9.0178 -8.68439,10.44137 -2.49928,2.23311 -2.72465,2.79579 -1.64218,4.10008 1.56178,1.88183 1.89308,1.87287 9.93131,-0.2687 z m -7.43814,-1.86946 c -0.64591,-1.04509 1.91536,-3.21009 4.21234,-3.56064 3.01956,-0.46081 11.61788,-6.50147 18.6661,-13.11368 3.73062,-3.49984 8.02223,-6.88442 9.5369,-7.52129 1.51468,-0.63687 3.41394,-1.81793 4.22056,-2.62456 2.00666,-2.00666 8.12885,-5.04907 13.34738,-6.63295 5.25498,-1.59495 4.79861,-1.58416 4.79861,-0.1134 0,0.67157 -2.21484,1.98272 -4.92188,2.91366 -7.62492,2.62218 -18.4166,9.15339 -24.66407,14.92688 -8.54379,7.89558 -24.05286,17.57553 -25.19594,15.72598 z M 177.877,243.28125 c 1.40026,-3.71225 3.998,-19.81379 3.998,-24.78083 0,-2.15988 0.38912,-3.68309 0.86565,-3.38858 1.04085,0.64328 0.30369,18.01572 -0.85643,20.18345 -1.20592,2.25327 -2.32979,13.52824 -1.28405,12.88194 1.62599,-1.00491 5.01715,-8.81833 5.94053,-13.68727 1.66786,-8.79464 3.90396,-15.49197 7.61116,-22.79623 2.01335,-3.96689 3.66064,-7.65829 3.66064,-8.20312 0,-2.0091 -3.51631,-0.90504 -6.00174,1.88443 -2.12104,2.38051 -2.8031,2.67468 -3.96524,1.71019 -0.82027,-0.68077 -1.19477,-1.9967 -0.90117,-3.16654 0.60808,-2.42277 -0.97977,-8.59816 -2.44339,-9.50273 -1.46895,-0.90786 -4.26641,2.82991 -5.59226,7.472 -1.80427,6.31717 -3.55692,7.78396 -5.1187,4.28388 -0.56735,-1.27147 -0.74604,2.90038 -0.512,11.95313 0.19774,7.64845 0.36709,18.25566 0.37634,23.57158 0.0165,9.47067 0.0485,9.61225 1.5893,7.03125 0.86486,-1.44873 2.04987,-3.89968 2.63336,-5.44655 z m -95.663654,4.76588 2.630404,-2.26535 -2.8125,-0.65959 c -1.546875,-0.36276 -3.285772,-1.24848 -3.864217,-1.96824 -0.847387,-1.05442 -1.161177,-0.76136 -1.615136,1.50843 -1.154703,5.77352 1.231358,7.20005 5.661449,3.38475 z m -3.335751,-7.54972 c 0.242052,-0.24205 0.276437,-1.84194 0.07641,-3.5553 l -0.363682,-3.1152 -5.467181,0.0397 c -3.00695,0.0218 -5.762614,0.33517 -6.123699,0.69633 -0.361084,0.36117 0.342106,1.91985 1.562645,3.46376 1.796902,2.27296 2.947568,2.81696 6.047284,2.85896 2.10547,0.0285 4.026168,-0.14618 4.26822,-0.38822 z m 9.385944,-11.76819 c -0.429001,-12.49544 1.173692,-16.97147 10.408336,-29.06866 1.933595,-2.53297 3.515625,-4.82875 3.515625,-5.10173 0,-0.27298 -1.05469,-0.49633 -2.34375,-0.49633 -3.392091,0 -3.075441,-3.29181 1.03617,-10.77197 1.85895,-3.38196 3.92837,-7.97138 4.59871,-10.19873 1.46677,-4.87372 0.62889,-7.02362 -1.68438,-4.32193 -2.183,2.54957 -4.41925,2.3782 -4.41925,-0.33866 0,-2.75539 -3.170916,-15.22862 -4.745128,-18.66559 -0.649463,-1.41796 -1.738826,-2.57812 -2.420812,-2.57812 -2.286437,0 -5.95906,8.87472 -5.95906,14.39978 0,3.60772 -0.400223,5.24069 -1.376227,5.61523 -0.756924,0.29045 -1.625572,0.12466 -1.930328,-0.36845 -0.304756,-0.49311 -1.162016,-0.89656 -1.905023,-0.89656 -1.764985,0 -1.740043,3.52722 0.05533,7.82415 0.773437,1.85109 1.40625,4.43387 1.40625,5.73949 -3e-6,1.96797 -0.443364,2.37386 -2.593034,2.37386 -2.526796,0 -2.5963,0.14215 -2.720967,5.56519 -0.07037,3.06084 -0.855022,8.93034 -1.743682,13.04331 -1.173097,5.42942 -1.432404,9.19016 -0.946518,13.7273 0.368076,3.43704 0.948504,5.97388 1.289839,5.63742 0.341334,-0.33646 1.538016,-4.27199 2.659292,-8.74561 1.121275,-4.47363 3.983286,-13.61824 6.360025,-20.32136 2.743732,-7.73816 4.661015,-15.05846 5.251764,-20.05156 1.062959,-8.98427 1.950975,-11.21572 2.803845,-7.04565 0.643857,3.14811 -0.07766,8.7064 -2.361352,18.19096 -2.722417,11.30665 -2.700263,11.04853 -0.978128,11.39646 1.433261,0.28955 1.39203,0.58011 -0.40593,2.86067 -6.205424,7.87106 -10.275103,25.24189 -7.28954,31.11435 0.813634,1.60037 2.358025,4.97887 3.431979,7.50778 1.073955,2.52889 2.261109,4.28954 2.63812,3.91252 0.37701,-0.377 0.542531,-4.84892 0.367823,-9.93756 z m -29.165967,1.19265 c -2.766694,-5.1653 -3.209834,-5.52777 -10.601852,-8.67187 -5.388545,-2.29194 -9.670843,-3.42258 -14.203235,-3.75 -3.999247,-0.28891 -6.636949,-0.91836 -6.874999,-1.64063 -0.509658,-1.54635 8.468622,-1.60207 11.316021,-0.0702 1.126259,0.60589 3.524305,1.39413 5.328993,1.75163 1.804687,0.3575 4.502249,0.97745 5.994581,1.37768 2.517504,0.67515 2.675252,0.56565 2.185708,-1.51727 -1.233007,-5.24623 -3.304387,-9.30915 -6.613308,-12.97173 -3.956076,-4.3789 -5.972859,-8.14988 -4.919819,-9.19905 0.385955,-0.38454 1.501788,0.28768 2.479628,1.49381 0.97784,1.20613 2.146309,2.04988 2.596597,1.875 1.321035,-0.51306 -2.609998,-15.79551 -5.513504,-21.43451 -8.5327,-16.57168 -8.764069,-16.91769 -11.130022,-16.64469 -1.831828,0.21137 -2.681488,-0.52692 -4.451996,-3.86847 -1.203459,-2.27133 -2.926896,-4.65129 -3.82986,-5.28881 -0.902966,-0.63752 -2.861055,-2.2943 -4.351312,-3.68172 -2.110053,-1.96447 -2.884728,-2.24628 -3.501269,-1.27369 -1.236616,1.95075 -0.974589,3.80154 1.081248,7.6373 2.286946,4.26693 1.814037,5.33036 -2.370422,5.33036 -1.7438259,0 -3.4562758,0.46224 -3.8054436,1.02721 -1.362472,2.20452 14.3618616,15.44762 16.1814246,13.62806 0.261542,-0.26154 -0.664062,-2.80477 -2.056898,-5.65163 -2.47266,-5.05393 -2.857133,-7.7466 -0.91318,-6.39547 2.376664,1.65189 13.606623,22.92045 13.520836,25.60729 -0.02311,0.72368 -1.816075,-0.66039 -3.984375,-3.07572 -3.430538,-3.82137 -4.565762,-4.47398 -8.744113,-5.02672 -3.097425,-0.40974 -5.024558,-0.2747 -5.429487,0.38049 -1.240745,2.00757 6.928434,14.95467 12.773197,20.24387 3.800749,3.43949 5.475877,5.59497 5.10309,6.56643 -0.745842,1.94364 -2.734513,1.82061 -6.93144,-0.42881 -5.67967,-3.04412 -8.664039,-2.51276 -13.684149,2.43644 -2.405266,2.37128 -4.373212,5.09569 -4.373212,6.05423 0,2.86084 7.271379,6.50933 12.972992,6.50933 5.337032,0 5.848746,0.76497 2.964508,4.43168 -2.661863,3.38401 -2.35592,4.10861 1.640625,3.88563 1.933594,-0.10788 4.992188,0.26668 6.796875,0.83235 5.998911,1.88033 20.099614,4.67444 24.195601,4.79447 l 4.039352,0.11837 -2.887381,-5.39063 z M 103.125,233.8752 c 1.28906,-0.20267 7.10967,-0.59077 12.93469,-0.86244 5.82501,-0.27167 11.41486,-0.93491 12.42187,-1.47384 2.16079,-1.15642 2.43858,-4.53293 0.42469,-5.16209 -0.77344,-0.24163 -2.03195,-0.6343 -2.79669,-0.8726 -0.8553,-0.2665 -1.16075,-1.03184 -0.79363,-1.98854 0.49704,-1.29526 1.3956,-1.44453 5.37482,-0.89282 6.26082,0.86804 10.68986,0.66544 13.04851,-0.59687 1.86686,-0.99911 1.8532,-1.06385 -0.60202,-2.85235 -3.54912,-2.58535 -3.20877,-5.02663 1.00338,-7.19713 3.56399,-1.8365 9.60938,-8.79021 9.60938,-11.05319 0,-0.94506 -2.33866,-1.23583 -9.93996,-1.23583 -9.09961,0 -10.33018,0.21796 -14.5557,2.57812 -3.96575,2.21508 -4.74292,2.3801 -5.51894,1.17188 -0.49676,-0.77344 -0.70994,-1.93359 -0.47373,-2.57813 1.3371,-3.64837 -9.36434,2.47874 -16.38667,9.3822 -5.82267,5.72411 -14.080231,18.8032 -12.726309,20.15712 0.248128,0.24813 3.043921,-1.49788 6.212869,-3.88002 3.16895,-2.38215 6.24727,-4.3188 6.8407,-4.30369 1.13377,0.0289 -2.42021,3.46839 -7.789863,7.53897 -2.3217,1.76002 -3.006356,2.86109 -2.537981,4.08164 0.431325,1.12404 1.176122,1.46457 2.274112,1.03977 0.897992,-0.34742 2.687412,-0.79749 3.976472,-1.00016 z M 67.161705,222.65435 c 0.297198,-0.77449 -0.17853,-3.20027 -1.057172,-5.39063 -1.156101,-2.88203 -1.598498,-6.75263 -1.601032,-14.00767 -0.0033,-9.49256 -0.108932,-10.04048 -1.987839,-10.3125 -2.12443,-0.30759 -2.93163,-2.43868 -3.948728,-10.42512 -0.480713,-3.77462 -0.79389,-4.33092 -1.914579,-3.40082 -0.751395,0.62359 -1.339855,2.75318 -1.339855,4.84881 0,3.51783 -0.137364,3.70237 -2.34375,3.1486 -2.825149,-0.70906 -2.996462,0.62469 -1.037012,8.07361 3.434175,13.05515 7.119201,22.35094 10.127825,25.54831 3.441605,3.65752 4.309274,3.98359 5.102142,1.91741 z M 52.516403,117.99909 c 2.033727,-1.63435 3.953929,-3.77889 4.267117,-4.76567 0.313189,-0.98676 1.854023,-3.25719 3.424077,-5.04538 1.570054,-1.78819 3.14488,-4.60813 3.499614,-6.26653 0.795691,-3.719885 -1.103022,-12.531606 -3.138951,-14.567535 -1.38268,-1.382681 -1.50576,-1.26397 -1.50576,1.452303 0,1.626936 0.421875,3.218798 0.9375,3.537472 2.85608,1.765153 -1.046416,6.972066 -4.292007,5.726616 -1.825071,-0.70035 -1.681959,-4.031907 0.218893,-5.095676 1.284495,-0.718839 1.451326,-1.830584 0.968256,-6.452342 -0.389622,-3.727711 -0.219887,-5.947603 0.510615,-6.678105 1.963414,-1.963414 -1.607878,-1.26639 -3.958951,0.772686 -2.05768,1.784616 -2.5665,4.373653 -1.751924,8.914321 0.283792,1.581927 -0.176509,1.875 -2.944882,1.875 -2.689013,0 -3.335321,-0.380723 -3.580829,-2.109375 -0.198997,-1.401162 0.183381,-2.109375 1.13889,-2.109375 1.544805,0 3.899321,-3.542617 2.971303,-4.470637 -1.258374,-1.258373 -5.774591,3.550791 -7.366771,7.844622 -4.369948,11.784985 -4.745025,13.431955 -3.620854,15.899245 0.595794,1.30762 1.083261,4.19919 1.083261,6.4257 0,5.58469 2.96364,9.38022 6.735304,8.62589 1.489628,-0.29793 4.372373,-1.87888 6.406099,-3.51323 z m 44.283913,-11.77342 c 0.388612,-0.22169 0.437278,-1.47601 0.10815,-2.78737 -0.329129,-1.31134 -0.06544,-4.605794 0.585881,-7.320972 1.070128,-4.460792 0.984994,-5.558476 -0.883116,-11.386392 C 93.242154,74.220412 86.962211,69.122995 76.235837,68.192269 71.44059,67.776187 70.33923,67.95311 69.85406,69.217442 c -0.334993,0.872977 -0.06099,1.702508 0.639163,1.935015 0.67404,0.223836 2.280214,1.523404 3.569277,2.887926 1.289062,1.364523 3.0916,2.761895 4.005638,3.10527 2.370176,0.8904 3.055302,3.382693 1.388183,5.049811 -1.998244,1.998244 -5.617544,0.06222 -5.247028,-2.806716 C 74.598457,76.37541 73.359884,75 70.257172,75 68.403268,75 67.5,75.471503 67.5,76.439234 c 0,2.405609 2.774776,5.848033 5.205594,6.458129 2.736327,0.686774 2.94655,2.471853 0.546857,4.643545 -1.654521,1.497322 -1.834549,1.448729 -3.38191,-0.912841 -0.898898,-1.371894 -1.719897,-3.077146 -1.824442,-3.78945 C 67.941556,82.126313 67.354041,81.041541 66.74051,80.42801 64.786171,78.473671 65.460469,83.642609 67.5,86.25 c 1.00832,1.289062 1.859112,2.976562 1.890651,3.75 0.0945,2.31755 5.919173,11.39774 8.590838,13.39243 4.619685,3.44909 14.999833,5.01186 18.818827,2.83324 z M 32.989873,90.200619 C 36.3904,88.786567 37.888702,85.909468 36.435972,83.583278 34.866637,81.070375 36.060039,78.75 38.921795,78.75 c 2.393127,0 6.924903,-4.030506 6.986079,-6.213333 0.111981,-3.995571 -8.716131,-3.921402 -9.720837,0.08167 -0.672426,2.679156 -3.835106,3.944563 -5.794499,2.318412 -1.819959,-1.510432 -1.245278,-3.042818 1.372921,-3.660891 3.334201,-0.787097 2.768786,-2.343288 -0.964556,-2.654747 -4.895161,-0.408385 -10.89369,2.758123 -15.610432,8.240445 -4.953902,5.757976 -7.1592601,10.62755 -5.8884507,13.002079 0.7981467,1.491351 2.1289117,1.677101 11.0371517,1.540584 5.571268,-0.08538 11.264083,-0.626998 12.650701,-1.2036 z M 62.112165,70.958788 C 65.901197,66.22649 65.366903,61.79512 60.335867,56.226365 56.33512,51.798016 52.986393,51.364553 49.036654,54.763779 c -2.266297,1.950421 -2.620895,2.925108 -2.561712,7.041391 0.0567,3.943837 0.547534,5.283671 2.8125,7.677378 4.775631,5.047077 9.527673,5.59408 12.824723,1.47624 z M 42.021866,61.249562 c -0.468534,-2.41587 -5.189779,-3.598711 -8.944614,-2.240946 -4.210826,1.522655 -6.288448,0.07965 -4.749234,-3.298557 1.175624,-2.580212 5.143666,-3.151191 6.020458,-0.866309 0.366352,0.954701 1.862069,1.40625 4.658076,1.40625 l 4.118448,0 0,-3.783316 c 0,-3.59888 -0.208587,-3.872728 -4.278716,-5.617388 -3.961421,-1.698064 -4.25689,-2.060583 -3.984375,-4.888559 0.241883,-2.510113 0.692213,-3.054487 2.526807,-3.054487 1.525867,0 2.71527,0.90024 3.757864,2.844269 0.838968,1.564347 2.665898,4.301559 4.059843,6.08269 2.014679,2.574283 2.772508,3.00036 3.695262,2.077606 C 49.66728,49.14522 49.71142,48.75 49.03133,48.75 c -0.567144,0 -3.162719,-3.357386 -5.767947,-7.460859 -4.62613,-7.286581 -4.863736,-7.495614 -10.171954,-8.948717 -2.989348,-0.818322 -6.820586,-2.10156 -8.513861,-2.851641 -1.693275,-0.75008 -4.243137,-1.363783 -5.66636,-1.363783 -2.842777,0 -2.590846,-1.37151 -3.271949,17.8125 -0.101843,2.868499 0.597041,5.69448 2.183605,8.829549 2.950112,5.829458 7.554343,7.916149 17.636502,7.99307 5.921053,0.04518 6.823915,-0.162646 6.5625,-1.510557 z m 49.4941,-0.689085 c 4.861884,-2.263819 8.941294,-6.60516 10.216964,-10.872977 0.38531,-1.289063 1.48896,-3.463563 2.45257,-4.832222 3.75309,-5.330746 1.98425,-6.83987 -9.02925,-7.703452 l -7.5,-0.588086 -6.495702,4.017736 C 74.120469,44.935921 72.573796,46.875 76.140625,46.875 c 1.228906,0 2.730587,0.496212 3.337068,1.102693 1.626341,1.626341 -0.370464,3.584807 -3.654985,3.584807 -2.321434,0 -2.695705,0.359594 -2.683352,2.578125 0.0079,1.417969 0.35803,3.119757 0.778077,3.781753 1.029264,1.622121 3.593429,0.519838 4.201709,-1.806229 0.692654,-2.648711 5.787108,-2.118235 5.787108,0.602601 0,1.509217 -1.051627,2.124685 -5.390625,3.154883 -2.964844,0.703936 -5.390625,1.653155 -5.390625,2.109375 0,0.456221 3.058594,0.825371 6.796875,0.820334 5.179628,-0.0069 7.938323,-0.540646 11.594091,-2.242865 z M 68.085937,43.837735 c 0.06445,-0.392004 0.169922,-1.328475 0.234375,-2.081045 0.06445,-0.752571 1.124802,-2.334602 2.356329,-3.515625 2.304835,-2.210316 3.057305,-4.84966 3.993661,-14.00808 0.476044,-4.656141 0.216392,-5.878512 -2.142429,-10.085964 C 71.051605,11.513786 69.105469,9.123483 68.203125,8.8352351 67.300781,8.5469873 66.5625,7.9274278 66.5625,7.4584362 c 0,-0.4689915 -1.055783,-1.5444868 -2.346183,-2.3899895 -2.24512,-1.4710595 -2.490858,-1.4269278 -5.704885,1.0245303 -1.847288,1.4089945 -4.129828,4.360768 -5.072313,6.559496 -1.511766,3.526806 -2.011364,6.179049 -3.337734,17.719186 -0.475703,4.138874 0.575464,8.388992 1.777521,7.186935 1.444694,-1.444694 4.343622,-1.221039 4.958993,0.382593 0.290978,0.758278 -0.36423,2.514311 -1.456019,3.902295 l -1.985071,2.523608 2.062145,2.195053 c 1.837512,1.955941 2.273754,2.054087 4.004721,0.900977 1.501794,-1.000442 1.942575,-2.284799 1.942575,-5.660318 0,-5.366648 2.465536,-7.556098 5.993327,-5.322206 1.071345,0.678404 0.860917,1.622914 -1.171875,5.259975 -1.362736,2.4382 -2.470595,5.540111 -2.461908,6.893135 0.01552,2.416718 0.05267,2.402425 2.109375,-0.811596 1.151469,-1.799402 2.146315,-3.592371 2.210768,-3.984375 z"
     id="path4166"
     inkscape:connector-curvature="0" />
</svg>
